<svg width="24" height="26" viewBox="0 0 24 26" fill="none" xmlns="http://www.w3.org/2000/svg">
<path d="M12 19.8944C9.66 19.8944 7.75 17.8861 7.75 15.4256C7.75 14.9945 8.09 14.637 8.5 14.637C8.91 14.637 9.25 14.9945 9.25 15.4256C9.25 17.0239 10.48 18.3172 12 18.3172C13.52 18.3172 14.75 17.0239 14.75 15.4256C14.75 14.9945 15.09 14.637 15.5 14.637C15.91 14.637 16.25 14.9945 16.25 15.4256C16.25 17.8861 14.34 19.8944 12 19.8944Z" fill="#34302B"/>
<path d="M5.18988 7.15032C4.99988 7.15032 4.79988 7.0662 4.65988 6.91899C4.36988 6.61406 4.36988 6.10934 4.65988 5.80441L8.28988 1.98749C8.57988 1.68256 9.05988 1.68256 9.34988 1.98749C9.63988 2.29242 9.63988 2.79714 9.34988 3.10207L5.71988 6.91899C5.56988 7.0662 5.37988 7.15032 5.18988 7.15032Z" fill="#34302B"/>
<path d="M18.8101 7.15032C18.6201 7.15032 18.4301 7.07671 18.2801 6.91899L14.6501 3.10207C14.3601 2.79714 14.3601 2.29242 14.6501 1.98749C14.9401 1.68256 15.4201 1.68256 15.7101 1.98749L19.3401 5.80441C19.6301 6.10934 19.6301 6.61406 19.3401 6.91899C19.2001 7.0662 19.0001 7.15032 18.8101 7.15032Z" fill="#34302B"/>
<path d="M20.21 11.5876C20.14 11.5876 20.07 11.5876 20 11.5876H19.77H4C3.3 11.5981 2.5 11.5981 1.92 10.9883C1.46 10.5151 1.25 9.77906 1.25 8.69602C1.25 5.80441 3.26 5.80441 4.22 5.80441H19.78C20.74 5.80441 22.75 5.80441 22.75 8.69602C22.75 9.78957 22.54 10.5151 22.08 10.9883C21.56 11.535 20.86 11.5876 20.21 11.5876ZM4.22 10.0104H20.01C20.46 10.0209 20.88 10.0209 21.02 9.87369C21.09 9.80009 21.24 9.54773 21.24 8.69602C21.24 7.50783 20.96 7.38165 19.77 7.38165H4.22C3.03 7.38165 2.75 7.50783 2.75 8.69602C2.75 9.54773 2.91 9.80009 2.97 9.87369C3.11 10.0104 3.54 10.0104 3.98 10.0104H4.22Z" fill="#34302B"/>
<path d="M14.89 24.3633H8.86C5.28 24.3633 4.48 22.1236 4.17 20.1783L2.76 11.0829C2.69 10.6518 2.97 10.2522 3.38 10.1786C3.78 10.105 4.17 10.3995 4.24 10.8306L5.65 19.9155C5.94 21.7766 6.54 22.786 8.86 22.786H14.89C17.46 22.786 17.75 21.8397 18.08 20.0101L19.76 10.8095C19.84 10.3784 20.23 10.0945 20.64 10.1892C21.05 10.2733 21.31 10.6834 21.23 11.1145L19.55 20.315C19.16 22.4496 18.51 24.3633 14.89 24.3633Z" fill="#34302B"/>
</svg>
