<svg width="43" height="43" viewBox="0 0 43 43" fill="none" xmlns="http://www.w3.org/2000/svg">
<path d="M6.32272 27.2174C3.30432 18.6961 7.76533 9.34132 16.2867 6.32292C24.808 3.30452 34.1628 7.76553 37.1812 16.2869C40.1996 24.8082 35.7386 34.163 27.2172 37.1814C18.6959 40.1998 9.34112 35.7388 6.32272 27.2174Z" fill="#E9E9E9"/>
<path d="M14.999 22.2818C14.891 22.1902 14.8398 22.0252 14.8398 21.9153C14.8398 21.8055 14.891 21.6596 14.999 21.5498L15.7422 20.7991C15.9563 20.5794 16.2748 20.5794 16.489 20.7991L16.5383 20.8536L19.465 23.9834C19.5712 24.0932 19.7322 24.0932 19.8384 23.9834L26.9638 16.5897H27.017C27.2312 16.3884 27.5478 16.3884 27.7619 16.5897L28.5087 17.3395C28.7192 17.5592 28.7192 17.8706 28.5087 18.0902L19.9977 26.9121C19.8897 27.0219 19.7836 27.0774 19.6243 27.0774C19.4651 27.0774 19.3607 27.0219 19.2509 26.9121L15.1034 22.4462L14.999 22.2818Z" fill="#B78E43"/>
</svg>
