<svg width="21" height="20" viewBox="0 0 21 20" fill="none" xmlns="http://www.w3.org/2000/svg">
<g opacity="0.7">
<path d="M19.4367 10.4521L17.9128 7.73935C17.8638 7.65456 17.7642 7.54302 17.6657 7.54302H15.0129V4.58159C15.0129 4.34088 14.8211 4 14.1487 4H5.84013C5.24125 4 4.94011 4.18438 4.94011 4.58159V5.21668C4.94011 5.36806 5.02777 5.49097 5.1792 5.49097C5.33063 5.49097 5.43594 5.36805 5.43594 5.21668L5.42569 4.61801C5.44732 4.58501 5.58566 4.5594 5.83955 4.5594H14.1482C14.3269 4.5594 14.4038 4.55655 14.4038 4.55655C14.4043 4.55712 14.4533 4.53493 14.4533 4.58159V13.0721C14.4533 13.1022 14.4191 13.1313 14.4282 13.1586C14.3423 13.2986 14.2546 13.4886 14.2091 13.6503C14.2057 13.6525 14.1812 13.6969 14.1772 13.6969H10.6016C10.3904 12.7648 9.68848 12.3636 8.85511 12.3636C8.02175 12.3636 7.31922 12.7642 7.10863 13.6969H5.83916C5.68261 13.6969 5.49987 13.3657 5.49987 13.2468V10.88C5.49987 10.7287 5.37122 10.6058 5.21978 10.6058C5.06835 10.6058 4.9397 10.7287 4.9397 10.88V13.2468C4.94027 13.7123 5.42472 14.2563 5.83916 14.2563H7.04601C7.08244 15.1885 7.87885 16 8.85574 16C9.83205 16 10.6285 15.1885 10.6655 14.2563H14.1237C14.159 15.1885 14.956 15.9591 15.9335 15.9591C16.9132 15.9591 17.7125 15.155 17.7432 14.1831C17.7535 14.1831 17.7654 14.1734 17.7757 14.1734C19.1408 14.1734 19.4483 13.2748 19.4606 13.2344C19.4686 13.2082 19.4902 13.1752 19.4902 13.1485V10.5883C19.4902 10.5405 19.4601 10.4938 19.4367 10.4523L19.4367 10.4521ZM8.85509 15.3638C8.15772 15.3638 7.59015 14.7964 7.59015 14.0993C7.59015 13.4022 8.15772 12.8143 8.85509 12.8348C10.1155 12.8718 10.12 14.0765 10.12 14.0993C10.12 14.7964 9.55245 15.3638 8.85509 15.3638ZM15.9334 15.3666C15.236 15.3666 14.6685 14.7993 14.6685 14.1021C14.6685 13.405 15.236 12.8377 15.9334 12.8377C16.6308 12.8377 17.1983 13.405 17.1983 14.1021C17.1978 14.7993 16.6308 15.3666 15.9334 15.3666ZM18.9306 13.0954C18.7439 13.2178 18.5879 13.6423 17.6884 13.611C17.4732 12.8502 16.814 12.2902 15.9851 12.2902C15.6105 12.2896 15.1995 12.404 15.0128 12.5992V8.10244H17.5061L18.9305 10.6609L18.9306 13.0954Z" fill="black"/>
<path d="M6.42443 6.33077C6.42443 6.17939 6.30147 6.05078 6.15061 6.05078L1.7643 6.05135C1.61287 6.05135 1.49048 6.17939 1.49048 6.33077C1.49048 6.48215 1.61287 6.61075 1.7643 6.61075H6.15061C6.30205 6.61075 6.42443 6.48215 6.42443 6.33077V6.33077Z" fill="black"/>
<path d="M6.4239 8.00899C6.4239 7.85761 6.30093 7.729 6.15008 7.729L2.49477 7.72957C2.34334 7.72957 2.22095 7.85818 2.22095 8.00956C2.22095 8.16094 2.34391 8.28955 2.49477 8.28955H6.15008C6.30151 8.28898 6.4239 8.16037 6.4239 8.00899V8.00899Z" fill="black"/>
<path d="M6.42421 9.68697C6.42421 9.53559 6.30124 9.40698 6.15039 9.40698H3.40883C3.2574 9.40698 3.13501 9.53559 3.13501 9.68697C3.13501 9.83835 3.25797 9.96696 3.40883 9.96696H6.15039C6.30182 9.96696 6.42421 9.83835 6.42421 9.68697Z" fill="black"/>
</g>
</svg>
