<svg width="24" height="26" viewBox="0 0 24 26" fill="none" xmlns="http://www.w3.org/2000/svg">
<path fill-rule="evenodd" clip-rule="evenodd" d="M12 0.441803C5.37258 0.441803 0 6.09104 0 13.0597C0 20.0284 5.37258 25.6776 12 25.6776C18.6274 25.6776 24 20.0284 24 13.0597C24 6.09104 18.6274 0.441803 12 0.441803ZM9.26164 6.26567C9.94431 6.23301 10.1624 6.22501 11.9006 6.22501H11.8986C13.6373 6.22501 13.8546 6.23301 14.5373 6.26567C15.2186 6.29848 15.684 6.4119 16.092 6.57832C16.5133 6.75007 16.8693 6.97999 17.2253 7.35433C17.5813 7.72838 17.8 8.10384 17.964 8.54645C18.1213 8.97435 18.2293 9.46337 18.2613 10.1798C18.292 10.8976 18.3 11.127 18.3 12.9546C18.3 14.7823 18.292 15.0111 18.2613 15.7289C18.2293 16.4451 18.1213 16.9342 17.964 17.3623C17.8 17.8047 17.5813 18.1802 17.2253 18.5542C16.8697 18.9286 16.5132 19.1591 16.0924 19.331C15.6852 19.4974 15.2196 19.6108 14.5382 19.6436C13.8556 19.6763 13.6381 19.6843 11.8998 19.6843C10.1618 19.6843 9.94378 19.6763 9.26111 19.6436C8.5799 19.6108 8.11469 19.4974 7.70749 19.331C7.28682 19.1591 6.92975 18.9286 6.57414 18.5542C6.21827 18.1802 5.99961 17.8047 5.836 17.3621C5.67787 16.9342 5.57 16.4452 5.53867 15.7288C5.50773 15.011 5.5 14.7823 5.5 12.9546C5.5 11.127 5.508 10.8975 5.53853 10.1797C5.5692 9.46351 5.6772 8.97435 5.83587 8.54631C5.99987 8.10384 6.21854 7.72838 6.57454 7.35433C6.93028 6.98013 7.28735 6.75021 7.70829 6.57832C8.11523 6.4119 8.5803 6.29848 9.26164 6.26567Z" fill="#34302B"/>
<path fill-rule="evenodd" clip-rule="evenodd" d="M11.4265 7.54291C11.538 7.54273 11.6579 7.54278 11.7873 7.54285L12.0006 7.54291C13.7094 7.54291 13.912 7.54936 14.5868 7.58161C15.2108 7.61161 15.5495 7.72125 15.7751 7.81336C16.0737 7.93533 16.2867 8.08114 16.5105 8.31668C16.7345 8.55222 16.8732 8.77654 16.9895 9.09059C17.0771 9.32752 17.1815 9.68363 17.2099 10.3398C17.2406 11.0492 17.2472 11.2623 17.2472 13.0583C17.2472 14.8542 17.2406 15.0673 17.2099 15.7767C17.1813 16.4329 17.0771 16.789 16.9895 17.0259C16.8735 17.34 16.7345 17.5636 16.5105 17.799C16.2865 18.0345 16.0739 18.1803 15.7751 18.3023C15.5497 18.3949 15.2108 18.5042 14.5868 18.5342C13.9121 18.5665 13.7094 18.5735 12.0006 18.5735C10.2917 18.5735 10.0891 18.5665 9.41447 18.5342C8.79046 18.5039 8.45179 18.3943 8.22606 18.3022C7.92739 18.1802 7.71405 18.0344 7.49005 17.7989C7.26605 17.5633 7.12738 17.3396 7.01111 17.0254C6.92351 16.7884 6.81911 16.4323 6.79071 15.7762C6.76004 15.0668 6.75391 14.8537 6.75391 13.0566C6.75391 11.2595 6.76004 11.0475 6.79071 10.3381C6.81924 9.68195 6.92351 9.32584 7.01111 9.08862C7.12711 8.77457 7.26605 8.55025 7.49005 8.31472C7.71405 8.07918 7.92739 7.93337 8.22606 7.81112C8.45166 7.71858 8.79046 7.60923 9.41447 7.57908C10.0049 7.55104 10.2337 7.54263 11.4265 7.54123V7.54291ZM15.4169 8.66031C14.9929 8.66031 14.6489 9.02161 14.6489 9.46758C14.6489 9.91342 14.9929 10.2751 15.4169 10.2751C15.8409 10.2751 16.1849 9.91342 16.1849 9.46758C16.1849 9.02175 15.8409 8.66003 15.4169 8.66003V8.66031ZM8.71393 13.0598C8.71393 11.1513 10.1855 9.60393 12.0005 9.60386C13.8156 9.60386 15.2868 11.1513 15.2868 13.0598C15.2868 14.9684 13.8157 16.515 12.0006 16.515C10.1855 16.515 8.71393 14.9684 8.71393 13.0598Z" fill="#34302B"/>
<path d="M12.0005 10.8166C13.1787 10.8166 14.1339 11.8208 14.1339 13.0598C14.1339 14.2986 13.1787 15.303 12.0005 15.303C10.8223 15.303 9.86719 14.2986 9.86719 13.0598C9.86719 11.8208 10.8223 10.8166 12.0005 10.8166Z" fill="#34302B"/>
</svg>
