<svg width="16" height="16" viewBox="0 0 16 16" fill="none" xmlns="http://www.w3.org/2000/svg">
<path d="M1 8.12718C1 11.9229 4.07706 15 7.87282 15C11.6685 15 14.7456 11.9229 14.7456 8.12718C14.7456 4.33143 11.6685 1.25436 7.87282 1.25436C4.07706 1.25436 1 4.33143 1 8.12718Z" stroke="#E0E1E2" stroke-linecap="round" stroke-linejoin="round"/>
<path d="M8.5603 1.28824C8.5603 1.28824 10.6221 4.00343 10.6221 8.12709C10.6221 12.2508 8.5603 14.966 8.5603 14.966" stroke="#E0E1E2" stroke-linecap="round" stroke-linejoin="round"/>
<path d="M7.18538 14.966C7.18538 14.966 5.12354 12.2508 5.12354 8.12709C5.12354 4.00343 7.18538 1.28824 7.18538 1.28824" stroke="#E0E1E2" stroke-linecap="round" stroke-linejoin="round"/>
<path d="M1.43286 10.5327H14.313" stroke="#E0E1E2" stroke-linecap="round" stroke-linejoin="round"/>
<path d="M1.43286 5.72168H14.313" stroke="#E0E1E2" stroke-linecap="round" stroke-linejoin="round"/>
</svg>
