<svg width="205" height="38" viewBox="0 0 205 38" fill="none" xmlns="http://www.w3.org/2000/svg">
<path fill-rule="evenodd" clip-rule="evenodd" d="M10.3495 10.59C11.4459 10.301 11.647 10.1882 12.0144 9.14908C12.7919 6.95048 13.105 0.620476 14.9538 0.0423996C16.2264 -0.355514 17.4118 2.10541 19.2061 4.98566C19.7851 5.91514 20.1677 7.31351 21.1133 8.16175C21.6979 8.68605 21.9175 8.68734 22.6571 8.71616C23.7207 8.75769 25.6562 8.76388 27.2488 8.68459C30.2533 8.53502 33.021 8.25769 33.1945 8.80566C33.397 9.44546 33.0634 9.8583 29.6218 12.0954C26.1802 14.3325 26.2225 14.7431 25.7895 16.5944C25.3566 18.4458 28.5642 24.5396 29.6321 26.6757C29.8899 27.1914 30.6678 28.8226 29.9959 28.5175C28.5353 27.8543 25.4894 20.5984 24.9177 19.2113C24.3824 17.9124 24.4319 16.8795 24.492 16.2167C24.7869 12.9679 28.5497 11.7248 30.6992 9.9017C30.9851 9.65926 30.5581 9.70265 30.3454 9.71358C28.653 9.80069 23.1854 10.0193 21.7883 9.84269C18.8949 9.4769 16.5627 1.10487 15.1313 1.17318C14.2395 1.45856 13.5274 8.46001 12.9399 9.78455C12.6559 10.425 12.4005 10.6407 11.7993 10.9927C10.4364 11.7907 7.63356 12.1962 1.83323 12.9371C1.47824 12.9824 1.27915 13.1178 1.37938 13.2284C1.75625 13.6443 4.10452 14.9527 6.47533 16.0963C7.5916 16.6348 9.06242 17.1717 9.66381 17.5957C9.90809 17.7679 9.87984 18.2306 9.86319 18.4695L9.24199 27.3649L14.7804 23.4883C16.2023 22.7177 16.5008 23.4058 15.419 24.3253C14.6228 24.87 9.03114 29.2201 8.686 28.8645C8.25892 28.4245 8.51306 27.7295 8.54009 25.8295C8.54618 25.4011 8.90229 21.2216 8.96643 19.3724C8.99591 18.5221 9.08817 18.1698 7.89391 17.6955C6.04029 16.9594 4.79641 16.2222 3.05772 15.3576C0.668579 14.1696 -0.356308 13.5525 0.109755 12.7174C0.789468 11.4996 5.12079 11.9684 10.3495 10.59Z" fill="#1A1A18"/>
<path fill-rule="evenodd" clip-rule="evenodd" d="M5.9474 13.6732C5.86051 13.4086 11.1324 13.4642 12.9971 12.6192C15.1683 11.6354 15.1272 5.78066 15.9028 5.39405C16.8372 4.92828 17.933 8.5134 18.9821 10.0241C19.5741 10.8767 20.3849 11.4881 21.676 11.498C22.7278 11.5061 25.2564 11.4067 26.158 11.3696C26.158 11.3696 26.5605 11.2927 26.3583 11.5496C26.004 11.9997 23.6688 13.4061 23.1445 14.1982C22.7655 14.7708 22.2957 15.1391 22.4038 16.2198C22.5119 17.3004 24.0248 20.7946 24.7093 22.1275C25.206 23.0948 25.6458 23.6448 25.8497 23.8736C25.9777 24.0173 26.0248 24.0477 25.9974 23.8137C25.9001 22.9842 24.8932 21.2188 24.2036 19.694C23.5981 18.3552 23.2632 17.0617 23.192 16.2347C23.1428 15.6628 23.2565 15.3643 23.3832 15.144C24.4848 13.2291 28.3107 11.2494 27.9256 10.8889C27.5889 10.5738 23.0042 10.9055 21.6834 10.889C20.1525 10.8699 19.4898 10.0154 18.9157 8.81207C17.2297 5.27873 16.5821 4.69909 15.9295 4.72304C14.2586 4.78443 14.7939 11.0932 12.936 11.9388C11.9161 12.4031 9.33861 12.6063 6.06862 12.9678C4.03577 13.1926 5.10477 14.2729 6.45476 14.8059C8.51024 15.6176 11.1888 16.7236 11.3539 16.9492C11.519 17.1749 10.9768 23.6381 11.0188 24.2816C11.0608 24.9251 11.7321 25.1265 12.2364 24.6402C12.6394 24.2516 15.0667 22.3907 16.0257 21.6588C16.6956 21.1475 16.6206 20.827 16.3242 20.8832C15.3315 21.0717 13.0438 22.9307 12.2625 23.3871C12.0328 23.5213 11.9796 23.2474 11.9777 23.0039C11.9696 21.9581 12.1734 18.1638 12.2123 17.1179C12.2182 16.9579 12.2657 16.8192 12.154 16.6864C11.3846 15.7728 5.23355 13.8051 5.9474 13.6732Z" fill="#1A1A18"/>
<path fill-rule="evenodd" clip-rule="evenodd" d="M12.504 26.0199C12.504 26.0199 12.7929 25.8677 13.158 26.0807C13.523 26.2936 15.3178 26.537 15.6372 26.4153C15.9566 26.2936 16.2456 26.2328 16.3825 25.9894C16.5194 25.7461 16.9301 25.1528 16.8997 24.2099C16.8692 23.2669 16.7931 16.3346 16.9301 16.076C17.067 15.8175 17.0365 15.787 17.2495 15.7566C17.4624 15.7262 17.6145 15.8175 17.6297 16.0304C17.6449 16.2433 17.6602 20.8788 17.9644 21.5025C18.2686 22.1261 18.2534 22.0348 18.4663 22.0348C18.6792 22.0348 19.0595 21.8827 19.3941 21.3047C19.7287 20.7268 20.147 19.7428 20.2763 19.5252C20.4574 19.2202 20.7932 19.5604 20.591 20.0255C20.2868 20.7252 19.7895 22.3543 19.8048 22.628C19.82 22.9018 19.6222 25.4874 20.2763 25.9286C21.4866 26.7449 22.5083 26.1649 23.9571 25.7004C25.9496 25.0616 26.8014 24.9703 26.8318 25.2897C26.8622 25.6092 26.9534 25.6119 26.5276 25.7792C25.504 26.1813 24.1454 26.3962 22.7887 27.191C21.2648 28.0839 19.9054 30.1372 20.1915 31.8874C20.45 33.4691 21.5925 34.3296 22.5578 34.9785C25.5919 37.0181 29.7271 37.3548 29.7352 37.7633C29.7376 37.8851 29.5356 38.0247 28.7634 37.8684C27.8828 37.6901 23.5581 36.8455 23.1205 36.8493C22.683 36.8532 24.2157 37.6859 24.0484 37.9597C23.8549 38.2763 20.74 36.1425 17.7818 36.4082C15.3918 36.623 13.9819 37.6178 13.0997 37.8916C11.6329 38.3469 13.7945 37.2386 13.4318 36.9558C12.8798 36.5254 8.20334 37.8958 7.71336 37.9358C6.9681 37.9966 6.80328 37.7408 6.93851 37.6715C8.13937 37.0558 15.5717 35.9184 16.2457 32.6961C16.8271 29.9165 16.2621 28.2926 13.2341 27.0997C12.2302 26.7043 12.1085 26.6587 12.1085 26.6587L11.713 26.5826L12.504 26.0199Z" fill="#1A1A18"/>
<path d="M48.1987 29C42.088 29 39.6628 26.5557 39.5483 23.7486H44.4368C44.5132 25.0281 45.4298 25.6964 48.2369 25.6964C50.6239 25.6964 51.4832 25.2381 51.4832 24.4552C51.4832 23.8059 51.2158 23.5004 47.6067 23.1185C41.2096 22.5074 40.102 20.7315 40.102 18.4018C40.102 16.2058 41.9352 14.1052 47.8359 14.1052C53.6028 14.1052 55.8943 16.3394 56.1426 19.3184H51.445C51.2731 18.3063 50.5666 17.3897 48.0268 17.3897C45.8881 17.3897 45.1625 17.8098 45.1625 18.4973C45.1625 19.032 45.3152 19.5284 48.1032 19.7958C55.7607 20.5214 56.5436 22.3928 56.5436 24.3215C56.5436 27.4914 53.6792 29 48.1987 29Z" fill="black"/>
<path d="M68.4787 28.6181H63.3419V17.9244H57.3267V14.4298H74.4748V17.9244H68.4787V28.6181Z" fill="black"/>
<path d="M93.0403 28.6181H87.407L86.3567 26.0974H78.9284L77.8782 28.6181H72.264L79.0812 14.4298H86.1276L93.0403 28.6181ZM82.4803 17.638L80.246 22.9466H85.0582L82.8431 17.638L82.6712 17.2369H82.633L82.4803 17.638Z" fill="black"/>
<path d="M99.9637 28.6181H94.8269V14.4298H105.101C110.447 14.4298 112.357 16.2821 112.357 18.7646C112.357 20.7506 111.058 22.0873 108.824 22.5265V22.5456C110.466 22.9657 111.135 23.5004 111.612 25.6391L111.803 26.4221C112.032 27.4532 112.223 27.9497 112.51 28.6181H107.258C107.067 28.2553 106.953 27.8733 106.685 26.6512L106.495 25.811C106.304 24.9135 105.559 24.4934 103.477 24.4934H99.9637V28.6181ZM99.9637 17.9053V21.2089H104.795C106.38 21.2089 107.239 20.5596 107.239 19.4521C107.239 18.4209 106.38 17.9053 104.795 17.9053H99.9637Z" fill="black"/>
<path d="M123.863 28.6181H117.676L112.749 14.4298H118.02L120.961 24.4361L121.075 24.9517H121.113L121.266 24.3979L124.36 14.4298H129.306L132.418 24.3979L132.571 24.9517H132.609L132.724 24.4361L135.645 14.4298H140.935L136.008 28.6181H129.802L126.957 19.0701L126.861 18.7455H126.823L126.728 19.0701L123.863 28.6181Z" fill="black"/>
<path d="M150.949 29C144.533 29 140.733 26.3648 140.733 21.5526V21.5335C140.733 16.7023 144.533 14.1052 150.949 14.1052C157.366 14.1052 161.166 16.7023 161.166 21.5335V21.5526C161.166 26.3648 157.366 29 150.949 29ZM150.949 25.4673C153.947 25.4673 155.972 24.016 155.972 21.5526V21.5335C155.972 19.051 153.947 17.6189 150.949 17.6189C147.951 17.6189 145.927 18.9747 145.927 21.5335V21.5526C145.927 24.0924 147.951 25.4673 150.949 25.4673Z" fill="black"/>
<path d="M172.6 29C166.184 29 162.384 26.3648 162.384 21.5526V21.5335C162.384 16.7023 166.184 14.1052 172.6 14.1052C179.016 14.1052 182.816 16.7023 182.816 21.5335V21.5526C182.816 26.3648 179.016 29 172.6 29ZM172.6 25.4673C175.598 25.4673 177.622 24.016 177.622 21.5526V21.5335C177.622 19.051 175.598 17.6189 172.6 17.6189C169.602 17.6189 167.578 18.9747 167.578 21.5335V21.5526C167.578 24.0924 169.602 25.4673 172.6 25.4673Z" fill="black"/>
<path d="M195.091 28.6181H185.085V14.4298H195.091C201.488 14.4298 204.276 17.5616 204.276 21.5335C204.276 25.3718 201.698 28.6181 195.091 28.6181ZM190.222 17.9244V25.1044H194.136C197.44 25.1044 199.082 24.0542 199.082 21.5335C199.082 18.9938 197.44 17.9244 194.117 17.9244H190.222Z" fill="black"/>
</svg>
