<svg width="27" height="24" viewBox="0 0 27 24" fill="none" xmlns="http://www.w3.org/2000/svg">
<path d="M21.248 15.9007V8.17135L21.6626 8.70292V8.37705L25.5125 11.8685C25.5424 11.8971 25.5517 11.9207 25.5545 11.9326L25.5361 11.9456L25.5127 11.9672L25.5127 11.9672L25.5127 11.9672L25.5127 11.9672L25.5127 11.9672L25.5127 11.9672L25.5126 11.9672L25.5126 11.9673L25.5126 11.9673L25.5126 11.9673L25.5126 11.9673L25.5126 11.9673L25.5125 11.9673L25.5125 11.9674L25.5125 11.9674L25.5124 11.9674L25.5124 11.9675L25.5124 11.9675L25.5123 11.9676L25.5123 11.9676L25.5122 11.9677L25.5121 11.9677L25.5121 11.9678L25.512 11.9678L25.5119 11.9679L25.5118 11.968L25.5117 11.9681L25.5116 11.9682L25.5115 11.9683L25.5114 11.9684L25.5113 11.9685L25.5112 11.9686L25.5111 11.9687L25.5109 11.9688L25.5108 11.969L25.5106 11.9691L25.5104 11.9693L25.5103 11.9694L25.5101 11.9696L25.5099 11.9698L25.5097 11.97L25.5095 11.9701L25.5093 11.9703L25.5091 11.9706L25.5088 11.9708L25.5086 11.971L25.5083 11.9712L25.508 11.9715L25.5078 11.9717L25.5075 11.972L25.5072 11.9723L25.5069 11.9726L25.5065 11.9729L25.5062 11.9732L25.5059 11.9735L25.5055 11.9738L25.5051 11.9742L25.5048 11.9745L25.5044 11.9749L25.5039 11.9753L25.5035 11.9757L25.5031 11.9761L25.5026 11.9765L25.5022 11.9769L25.5017 11.9773L25.5012 11.9778L25.5007 11.9783L25.5002 11.9787L25.4996 11.9792L25.4991 11.9797L25.4985 11.9803L25.4979 11.9808L25.4973 11.9814L25.4967 11.9819L25.4961 11.9825L25.4955 11.9831L25.4948 11.9837L25.4941 11.9843L25.4934 11.985L25.4927 11.9856L25.492 11.9863L25.4912 11.987L25.4905 11.9877L25.4897 11.9884L25.4889 11.9892L25.4881 11.9899L25.4872 11.9907L25.4864 11.9915L25.4855 11.9923L25.4846 11.9931L25.4837 11.994L25.4827 11.9948L25.4818 11.9957L25.4808 11.9966L25.4798 11.9975L25.4788 11.9985L25.4777 11.9994L25.4767 12.0004L25.4756 12.0014L25.4745 12.0024L25.4734 12.0035L25.4722 12.0045L25.4711 12.0056L25.4699 12.0067L25.4687 12.0078L25.4674 12.0089L25.4662 12.0101L25.4649 12.0113L25.4636 12.0125L25.4623 12.0137L25.4609 12.015L25.4595 12.0162L25.4581 12.0175L25.4567 12.0188L25.4553 12.0202L25.4538 12.0215L25.4523 12.0229L25.4508 12.0243L25.4492 12.0257L25.4477 12.0272L25.4461 12.0287L25.4444 12.0301L25.4428 12.0317L25.4411 12.0332L25.4394 12.0348L25.4377 12.0364L25.4359 12.038L25.4341 12.0397L25.4323 12.0413L25.4305 12.043L25.4286 12.0447L25.4267 12.0465L25.4248 12.0483L25.4228 12.0501L25.4209 12.0519L25.4189 12.0538L25.4168 12.0556L25.4147 12.0575L25.4126 12.0595L25.4105 12.0614L25.4084 12.0634L25.4062 12.0654L25.404 12.0675L25.4017 12.0696L25.3994 12.0717L25.3971 12.0738L25.3948 12.076L25.3924 12.0782L25.39 12.0804L25.3876 12.0826L25.3851 12.0849L25.3826 12.0872L25.38 12.0895L25.3775 12.0919L25.3749 12.0943L25.3722 12.0967L25.3696 12.0992L25.3669 12.1017L25.3641 12.1042L25.3614 12.1068L25.3586 12.1093L25.3557 12.112L25.3529 12.1146L25.35 12.1173L25.347 12.12L25.344 12.1227L25.341 12.1255L25.338 12.1283L25.3349 12.1312L25.3318 12.1341L25.3286 12.137L25.3254 12.1399L25.3222 12.1429L25.3189 12.1459L25.3156 12.1489L25.3123 12.152L25.3089 12.1551L25.3055 12.1583L25.3021 12.1615L25.2986 12.1647L25.295 12.168L25.2915 12.1712L25.2879 12.1746L25.2842 12.1779L25.2805 12.1813L25.2768 12.1848L25.2731 12.1882L25.2692 12.1917L25.2654 12.1953L25.2615 12.1989L25.2576 12.2025L25.2536 12.2061L25.2496 12.2098L25.2456 12.2136L25.2415 12.2173L25.2374 12.2212L25.2332 12.225L25.229 12.2289L25.2247 12.2328L25.2204 12.2368L25.2161 12.2408L25.2117 12.2448L25.2073 12.2489L25.2028 12.253L25.1983 12.2572L25.1937 12.2614L25.1891 12.2656L25.1845 12.2699L25.1798 12.2742L25.1751 12.2786L25.1703 12.283L25.1655 12.2875L25.1606 12.292L25.1557 12.2965L25.1507 12.3011L25.1457 12.3057L25.1407 12.3103L25.1356 12.315L25.1304 12.3198L25.1252 12.3246L25.12 12.3294L25.1147 12.3343L25.1094 12.3392L25.104 12.3441L25.0986 12.3491L25.0931 12.3542L25.0876 12.3593L25.082 12.3644L25.0764 12.3696L25.0708 12.3748L25.065 12.3801L25.0593 12.3854L25.0535 12.3908L25.0476 12.3962L25.0417 12.4016L25.0357 12.4071L25.0297 12.4127L25.0237 12.4183L25.0175 12.4239L25.0114 12.4296L25.0052 12.4353L24.9989 12.4411L24.9926 12.4469L24.9862 12.4528L24.9798 12.4587L24.9733 12.4647L24.9668 12.4707L24.9602 12.4768L24.9536 12.4829L24.9469 12.4891L24.9402 12.4953L24.9334 12.5015L24.9265 12.5078L24.9196 12.5142L24.9127 12.5206L24.9057 12.5271L24.8986 12.5336L24.8915 12.5401L24.8844 12.5468L24.8771 12.5534L24.8699 12.5601L24.8625 12.5669L24.8551 12.5737L24.8477 12.5806L24.8402 12.5875L24.8326 12.5945L24.825 12.6015L24.8174 12.6085L24.8096 12.6157L24.8018 12.6229L24.794 12.6301L24.7861 12.6374L24.7782 12.6447L24.7701 12.6521L24.7621 12.6595L24.7539 12.667L24.7458 12.6746L24.7375 12.6822L24.7292 12.6899L24.7208 12.6976L24.7124 12.7053L24.7039 12.7132L24.6954 12.721L24.6868 12.729L24.6781 12.737L24.6694 12.745L24.6606 12.7531L24.6518 12.7613L24.6429 12.7695L24.6339 12.7778L24.6249 12.7861L24.6158 12.7945L24.6066 12.8029L24.5974 12.8114L24.5881 12.82L24.5788 12.8286L24.5694 12.8373L24.5599 12.846L24.5504 12.8548L24.5408 12.8636L24.5312 12.8725L24.5214 12.8815L24.5117 12.8905L24.5018 12.8996L24.4919 12.9087L24.4819 12.9179L24.4719 12.9272L24.4618 12.9365L24.4516 12.9459L24.4414 12.9553L24.4311 12.9648L24.4207 12.9744L24.4103 12.984L24.3998 12.9937L24.3892 13.0035L24.3786 13.0133L24.3679 13.0231L24.3571 13.0331L24.3463 13.043L24.3354 13.0531L24.3244 13.0632L24.3134 13.0734L24.3023 13.0836L24.2911 13.0939L24.2799 13.1043L24.2685 13.1147L24.2572 13.1252L24.2457 13.1358L24.2342 13.1464L24.2226 13.1571L24.211 13.1679L24.1992 13.1787L24.1874 13.1896L24.1756 13.2005L24.1636 13.2115L24.1516 13.2226L24.1395 13.2337L24.1274 13.2449L24.1152 13.2562L24.1029 13.2676L24.0905 13.279L24.0781 13.2904L24.0655 13.302L24.053 13.3136L24.0403 13.3253L24.0276 13.337L24.0148 13.3488L24.0019 13.3607L23.9889 13.3726L23.9759 13.3846L23.9628 13.3967L23.9497 13.4089L23.9364 13.4211L23.9231 13.4334L23.9097 13.4457L23.8962 13.4582L23.8827 13.4707L23.8691 13.4832L23.8554 13.4958L23.8416 13.5086L23.8277 13.5213L23.8138 13.5342L23.7998 13.5471L23.7857 13.5601L23.7716 13.5731L23.7573 13.5863L23.743 13.5995L23.7286 13.6127L23.7142 13.6261L23.6996 13.6395L23.685 13.653L23.6703 13.6665L23.6555 13.6802L23.6407 13.6939L23.6257 13.7076L23.6107 13.7215L23.5956 13.7354L23.5805 13.7494L23.5652 13.7635L23.5499 13.7776L23.5345 13.7918L23.519 13.8061L23.5034 13.8205L23.4877 13.8349L23.472 13.8494L23.4562 13.864L23.4403 13.8787L23.4243 13.8934L23.4082 13.9083L23.3921 13.9232L23.3758 13.9381L23.3595 13.9532L23.3431 13.9683L23.3267 13.9835L23.3101 13.9988L23.2935 14.0141L23.2767 14.0295L23.2599 14.0451L23.243 14.0606L23.226 14.0763L23.209 14.092L23.1918 14.1079L23.1746 14.1237L23.1573 14.1397L23.1399 14.1558L23.1224 14.1719L23.1048 14.1881L23.0871 14.2044L23.0694 14.2208L23.0516 14.2372L23.0336 14.2538L23.0156 14.2704L22.9975 14.2871L22.9794 14.3038L22.9611 14.3207L22.9427 14.3376L22.9243 14.3546L22.9058 14.3717L22.8871 14.3889L22.8684 14.4061L22.8496 14.4235L22.8307 14.4409L22.8118 14.4584L22.7927 14.476L22.7735 14.4937L22.7543 14.5114L22.735 14.5292L22.7155 14.5472L22.696 14.5652L22.6764 14.5832L22.6567 14.6014L22.6369 14.6197L22.6171 14.638L22.5971 14.6564L22.577 14.6749L22.5569 14.6935L22.5366 14.7122L22.5163 14.7309L22.4959 14.7498L22.4753 14.7687L22.4547 14.7877L22.434 14.8068L22.4132 14.826L22.3923 14.8453L22.3713 14.8646L22.3503 14.8841L22.3291 14.9036L22.3078 14.9232L22.2864 14.9429L22.265 14.9627L22.2434 14.9826L22.2218 15.0026L22.2 15.0226L22.1782 15.0428L22.1562 15.063L22.1342 15.0834L22.1121 15.1038L22.0899 15.1243L22.0675 15.1449L22.0451 15.1655L22.0226 15.1863L22 15.2072L21.9773 15.2281L21.9545 15.2491L21.9316 15.2703L21.9086 15.2915L21.8854 15.3128L21.8622 15.3342L21.8389 15.3557L21.8155 15.3773L21.792 15.3989L21.7685 15.4207L21.7448 15.4426L21.721 15.4645L21.6971 15.4866L21.6731 15.5087L21.649 15.5309L21.6248 15.5532L21.6005 15.5757L21.5761 15.5982L21.5516 15.6208L21.527 15.6435L21.5023 15.6662L21.4774 15.6891L21.4525 15.7121L21.4275 15.7352L21.4024 15.7583L21.3772 15.7816L21.3519 15.8049L21.3265 15.8284L21.3009 15.8519L21.2753 15.8756L21.2496 15.8993L21.248 15.9007ZM20.7748 16.343C20.7748 16.343 20.7752 16.3426 20.7761 16.3418C20.7752 16.3427 20.7748 16.3431 20.7748 16.343ZM21.2485 7.35656C21.2486 7.35547 21.2487 7.35495 21.2488 7.35496L21.2485 7.35656Z" stroke="#F1223D"/>
<path d="M13.1029 0.5H12.8598V0L12.5489 0.120811L13.1029 0.5ZM13.1029 0.5L13.2381 0.552539L13.2387 0.553161L13.2404 0.55473L13.2422 0.556325L13.2439 0.557944L13.2457 0.55959L13.2475 0.561261L13.2494 0.562958L13.2512 0.564681L13.2531 0.56643L13.2551 0.568206L13.257 0.570009L13.259 0.571838L13.261 0.573695L13.263 0.575578L13.2651 0.57749L13.2672 0.579429L13.2693 0.581396L13.2715 0.583391L13.2737 0.585414L13.2759 0.587466L13.2782 0.589547L13.2805 0.591656L13.2828 0.593795L13.2851 0.595963L13.2875 0.59816L13.2899 0.600387L13.2924 0.602644L13.2949 0.604931L13.2974 0.607248L13.2999 0.609596L13.3025 0.611975L13.3051 0.614384L13.3077 0.616824L13.3104 0.619296L13.3131 0.621799L13.3159 0.624334L13.3187 0.626901L13.3215 0.6295L13.3243 0.632131L13.3272 0.634795L13.3301 0.637491L13.3331 0.64022L13.3361 0.642983L13.3391 0.645778L13.3422 0.648607L13.3453 0.65147L13.3484 0.654367L13.3516 0.657298L13.3548 0.660263L13.3581 0.663262L13.3614 0.666296L13.3647 0.669365L13.3681 0.672469L13.3715 0.675609L13.3749 0.678783L13.3784 0.681994L13.3819 0.68524L13.3855 0.688523L13.3891 0.691841L13.3927 0.695197L13.3964 0.698589L13.4001 0.702017L13.4038 0.705483L13.4076 0.708986L13.4115 0.712527L13.4153 0.716105L13.4193 0.719721L13.4232 0.723375L13.4272 0.727067L13.4313 0.730798L13.4354 0.734568L13.4395 0.738376L13.4437 0.742223L13.4479 0.74611L13.4521 0.750036L13.4564 0.754002L13.4608 0.758008L13.4651 0.762053L13.4696 0.766139L13.4741 0.770266L13.4786 0.774433L13.4831 0.778641L13.4877 0.78289L13.4924 0.78718L13.4971 0.791512L13.5018 0.795885L13.5066 0.8003L13.5114 0.804757L13.5163 0.809257L13.5212 0.813799L13.5262 0.818383L13.5312 0.823011L13.5363 0.827681L13.5414 0.832395L13.5465 0.837152L13.5517 0.841953L13.557 0.846798L13.5623 0.851686L13.5676 0.856619L13.573 0.861597L13.5785 0.866619L13.584 0.871685L13.5895 0.876797L13.5951 0.881954L13.6007 0.887157L13.6064 0.892405L13.6122 0.897699L13.618 0.903039L13.6238 0.908426L13.6297 0.913858L13.6356 0.919338L13.6416 0.924864L13.6476 0.930437L13.6537 0.936057L13.6599 0.941725L13.6661 0.947441L13.6723 0.953204L13.6786 0.959016L13.685 0.964875L13.6914 0.970783L13.6978 0.97674L13.7043 0.982745L13.7109 0.9888L13.7175 0.994904L13.7242 1.00106L13.7309 1.00726L13.7377 1.01351L13.7445 1.01981L13.7514 1.02617L13.7583 1.03257L13.7653 1.03902L13.7724 1.04553L13.7795 1.05208L13.7867 1.05869L13.7939 1.06535L13.8011 1.07206L13.8085 1.07882L13.8159 1.08564L13.8233 1.0925L13.8308 1.09942L13.8384 1.10639L13.846 1.11341L13.8536 1.12049L13.8614 1.12762L13.8691 1.13481L13.877 1.14204L13.8849 1.14933L13.8929 1.15668L13.9009 1.16408L13.909 1.17153L13.9171 1.17904L13.9253 1.1866L13.9335 1.19422L13.9419 1.20189L13.9502 1.20962L13.9587 1.2174L13.9672 1.22524L13.9757 1.23314L13.9843 1.24109L13.993 1.2491L14.0018 1.25717L14.0106 1.26529L14.0194 1.27347L14.0284 1.2817L14.0373 1.29L14.0464 1.29835L14.0555 1.30676L14.0647 1.31522L14.0739 1.32375L14.0832 1.33233L14.0926 1.34097L14.102 1.34967L14.1115 1.35843L14.1211 1.36725L14.1307 1.37613L14.1404 1.38507L14.1501 1.39407L14.16 1.40313L14.1698 1.41224L14.1798 1.42142L14.1898 1.43066L14.1999 1.43996L14.21 1.44932L14.2202 1.45874L14.2305 1.46823L14.2409 1.47777L14.2513 1.48738L14.2618 1.49705L14.2723 1.50678L14.2829 1.51657L14.2936 1.52642L14.3043 1.53634L14.3152 1.54632L14.3261 1.55637L14.337 1.56648L14.348 1.57665L14.3591 1.58688L14.3703 1.59718L14.3815 1.60755L14.3928 1.61797L14.4042 1.62847L14.4156 1.63902L14.4271 1.64965L14.4387 1.66033L14.4504 1.67109L14.4621 1.6819L14.4739 1.69279L14.4858 1.70374L14.4977 1.71475L14.5097 1.72584L14.5218 1.73699L14.534 1.7482L14.5462 1.75948L14.5585 1.77083L14.5709 1.78225L14.5833 1.79374L14.5958 1.80529L14.6084 1.81691L14.6211 1.8286L14.6338 1.84035L14.6467 1.85218L14.6595 1.86407L14.6725 1.87604L14.6856 1.88807L14.6987 1.90017L14.7119 1.91234L14.7251 1.92458L14.7385 1.9369L14.7519 1.94928L14.7654 1.96173L14.779 1.97425L14.7926 1.98684L14.8063 1.99951L14.8201 2.01224L14.834 2.02505L14.848 2.03793L14.862 2.05088L14.8761 2.0639L14.8903 2.07699L14.9046 2.09016L14.9189 2.10339L14.9334 2.11671L14.9479 2.13009L14.9624 2.14355L14.9771 2.15708L14.9919 2.17068L15.0067 2.18436L15.0216 2.19811L15.0366 2.21194L15.0516 2.22584L15.0668 2.23981L15.082 2.25386L15.0973 2.26799L15.1127 2.28219L15.1282 2.29646L15.1437 2.31081L15.1594 2.32524L15.1751 2.33974L15.1909 2.35432L15.2068 2.36897L15.2227 2.3837L15.2388 2.39851L15.2549 2.4134L15.2711 2.42836L15.2874 2.4434L15.3038 2.45852L15.3203 2.47371L15.3368 2.48898L15.3535 2.50433L15.3702 2.51976L15.387 2.53527L15.4039 2.55086L15.4209 2.56652L15.4379 2.58226L15.4551 2.59809L15.4723 2.61399L15.4897 2.62997L15.5071 2.64604L15.5246 2.66218L15.5421 2.6784L15.5598 2.69471L15.5776 2.71109L15.5954 2.72755L15.6133 2.7441L15.6314 2.76073L15.6495 2.77744L15.6677 2.79423L15.686 2.8111L15.7043 2.82806L15.7228 2.84509L15.7414 2.86221L15.76 2.87941L15.7787 2.8967L15.7976 2.91407L15.8165 2.93152L15.8355 2.94905L15.8546 2.96667L15.8738 2.98438L15.893 3.00216L15.9124 3.02003L15.9319 3.03799L15.9514 3.05603L15.9711 3.07415L15.9908 3.09236L16.0106 3.11066L16.0306 3.12904L16.0506 3.14751L16.0707 3.16606L16.0909 3.1847L16.1112 3.20342L16.1316 3.22224L16.152 3.24113L16.1726 3.26012L16.1933 3.27919L16.2141 3.29835L16.2349 3.3176L16.2559 3.33693L16.2769 3.35635L16.2981 3.37587L16.3193 3.39546L16.3406 3.41515L16.3621 3.43493L16.3836 3.45479L16.4052 3.47475L16.427 3.49479L16.4488 3.51492L16.4707 3.53514L16.4927 3.55546L16.5148 3.57586L16.537 3.59635L16.5593 3.61694L16.5818 3.63761L16.6043 3.65837L16.6269 3.67923L16.6496 3.70018L16.6724 3.72122L16.6953 3.74235L16.7183 3.76357L16.7414 3.78488L16.7646 3.80629L16.7879 3.82779L16.8113 3.84938L16.8348 3.87106L16.8584 3.89284L16.8821 3.91471L16.9059 3.93667L16.9298 3.95873L16.9538 3.98088L16.9779 4.00313L17.0021 4.02547L17.0264 4.0479L17.0509 4.07043L17.0754 4.09306L17.1 4.11578L17.1247 4.13859L17.1496 4.1615L17.1745 4.18451L17.1995 4.20761L17.2247 4.2308L17.2499 4.2541L17.2753 4.27749L17.3007 4.30098L17.3263 4.32456L17.352 4.34824L17.4036 4.39589L17.4296 4.41987L17.4557 4.44394L17.4819 4.46811L17.5082 4.49237L17.5312 4.51365H17.5282H17.5229H17.5176H17.5122H17.5068H17.5014H17.496H17.4905H17.485H17.4794H17.4738H17.4682H17.4626H17.4569H17.4512H17.4455H17.4397H17.4339H17.4281H17.4222H17.4163H17.4104H17.4044H17.3984H17.3924H17.3863H17.3803H17.3741H17.368H17.3618H17.3555H17.3493H17.343H17.3367H17.3303H17.3239H17.3175H17.311H17.3045H17.298H17.2914H17.2848H17.2782H17.2715H17.2648H17.2581H17.2513H17.2445H17.2376H17.2308H17.2239H17.2169H17.2099H17.2029H17.1958H17.1888H17.1816H17.1745H17.1673H17.16H17.1528H17.1455H17.1381H17.1307H17.1233H17.1159H17.1084H17.1009H17.0933H17.0857H17.0781H17.0704H17.0627H17.0549H17.0471H17.0393H17.0315H17.0236H17.0156H17.0077H16.9996H16.9916H16.9835H16.9754H16.9672H16.959H16.9508H16.9425H16.9342H16.9258H16.9174H16.909H16.9005H16.892H16.8835H16.8749H16.8662H16.8576H16.8489H16.8401H16.8313H16.8225H16.8136H16.8047H16.7958H16.7868H16.7778H16.7687H16.7596H16.7504H16.7413H16.732H16.7228H16.7134H16.7041H16.6947H16.6853H16.6758H16.6663H16.6567H16.6471H16.6375H16.6278H16.6181H16.6083H16.5985H16.5886H16.5788H16.5688H16.5588H16.5488H16.5388H16.5287H16.5185H16.5083H16.4981H16.4878H16.4775H16.4671H16.4567H16.4463H16.4358H16.4253H16.4147H16.4041H16.3934H16.3827H16.3719H16.3611H16.3503H16.3394H16.3285H16.3175H16.3065H16.2954H16.2843H16.2732H16.262H16.2507H16.2394H16.2281H16.2167H16.2053H16.1938H16.1823H16.1708H16.1592H16.1475H16.1358H16.1241C15.5445 4.51365 15.0023 4.97103 15.0023 5.59354V5.59355V5.59355V5.59356V5.59356V5.59357V5.59358V5.59359V5.59361V5.59362V5.59364V5.59366V5.59368V5.59371V5.59374V5.59377V5.5938V5.59384V5.59388V5.59393V5.59397V5.59403V5.59408V5.59414V5.59421V5.59427V5.59435V5.59443V5.59451V5.5946V5.59469V5.59479V5.59489V5.595V5.59512V5.59524V5.59537V5.5955V5.59564V5.59579V5.59594V5.5961V5.59627V5.59644V5.59662V5.59681V5.59701V5.59721V5.59742V5.59764V5.59787V5.59811V5.59835V5.59861V5.59887V5.59914V5.59942V5.59971V5.60001V5.60031V5.60063V5.60096V5.60129V5.60164V5.602V5.60237V5.60275V5.60313V5.60353V5.60394V5.60437V5.6048V5.60524V5.6057V5.60617V5.60665V5.60714V5.60764V5.60816V5.60869V5.60923V5.60978V5.61035V5.61093V5.61152V5.61213V5.61274V5.61338V5.61403V5.61469V5.61536V5.61605V5.61675V5.61747V5.6182V5.61895V5.61971V5.62049V5.62128V5.62209V5.62291V5.62375V5.62461V5.62548V5.62637V5.62727V5.62819V5.62913V5.63008V5.63105V5.63204V5.63304V5.63406V5.6351V5.63616V5.63723V5.63832V5.63943V5.64056V5.64171V5.64288V5.64406V5.64526V5.64648V5.64773V5.64898V5.65026V5.65156V5.65288V5.65422V5.65558V5.65696V5.65836V5.65978V5.66122V5.66268V5.66416V5.66566V5.66718V5.66873V5.67029V5.67188V5.67349V5.67512V5.67678V5.67845V5.68015V5.68187V5.68362V5.68538V5.68717V5.68898V5.69082V5.69268V5.69456V5.69647V5.6984V5.70035V5.70233V5.70433V5.70636V5.70841V5.71048V5.71258V5.71471V5.71686V5.71904V5.72124V5.72347V5.72572V5.728V5.7303V5.73263V5.73499V5.73737V5.73979V5.74222V5.74469V5.74718V5.7497V5.75224V5.75482V5.75742V5.76005V5.7627V5.76539V5.7681V5.77084V5.77361V5.77641V5.77924V5.7821V5.78498V5.7879V5.79084V5.79382V5.79682V5.79986V5.80292V5.80602V5.80914V5.81229V5.81548V5.8187V5.82194V5.82522V5.82853V5.83187V5.83525V5.83865V5.84209V5.84555V5.84905V5.85259V5.85615V5.85975V5.86338V5.86704V5.87074V5.87447V5.87823V5.88203V5.88586V5.88972V5.89362V5.89755V5.90151V5.90551V5.90955V5.91361V5.91772V5.92186V5.92603V5.93024V5.93448V5.93876V5.94308V5.94743V5.95181V5.95624V5.9607V5.96519V5.96973V5.97429V5.9789V5.98354V5.98822V5.99294V5.99769V6.00249V6.00732V6.01219V6.01709V6.02204V6.02702V6.03204V6.0371V6.0422V6.04733V6.05251V6.05773V6.06298V6.06827V6.07361V6.07898V6.0844V6.08985V6.09534V6.10088V6.10645V6.11207V6.11773V6.12342V6.12916V6.13494V6.14076V6.14663V6.15253V6.15848V6.16447V6.1705V6.17657V6.18269V6.18885V6.19505V6.20129V6.20758V6.21391V6.22028V6.2267V6.23316V6.23966V6.24621V6.25281V6.25944V6.26612V6.27285V6.27962V6.28643V6.29329V6.3002V6.30715V6.31415V6.32119V6.32828V6.33541V6.34259V6.34981V6.35709V6.3644V6.37177V6.37918V6.38664V6.39415V6.4017V6.4093V6.41695V6.42464V6.43238V6.44018V6.44801V6.4559V6.46384V6.47182V6.47986V6.48794V6.49607V6.50425V6.51248V6.52076V6.52908V6.53746V6.54589V6.55437V6.5629V6.57147V6.5801V6.58878V6.59751V6.60629V6.61513V6.62401V6.63294V6.64193V6.65097V6.66006V6.6692V6.67839V6.68764V6.69694V6.70629V6.71569V6.72515V6.73466V6.74422V6.75383V6.7635V6.77323V6.783V6.79283V6.80272V6.81265V6.82265V6.8327V6.8428V6.85295V6.86316V6.87343V6.88375V6.89413V6.90456V6.91505V6.92559V6.93619V6.94685V6.95756V6.96833V6.97916V6.99004V7.00098V7.01197V7.02302V7.03413V7.0453V7.05653V7.06781V7.07915V7.09055V7.102V7.11352V7.12509V7.13672V7.14842V7.16017V7.17197V7.18384V7.19577V7.20776V7.2198V7.23191V7.24407V7.2563V7.26859V7.28093V7.29334V7.30581V7.31834V7.33093V7.34358V7.35629V7.36906V7.3819V7.3948V7.40775V7.42077V7.43386V7.447V7.46021V7.47348V7.48681V7.50021V7.51367V7.52719V7.54077V7.55442V7.56814V7.58191V7.59575V7.60966V7.62363V7.63766V7.65176V7.66592V7.68014V7.69444V7.70879V7.72321V7.7377V7.75226V7.76687V7.78156V7.79631V7.81113V7.82601V7.84096V7.85598V7.87106V7.88621V7.90142V7.91671V7.93206V7.94748V7.96296V7.97852V7.99414V8.00983V8.02559V8.04142V8.05731V8.07328V8.08931V8.10541V8.12158V8.13782V8.15413V8.17051V8.18696V8.20348V8.22007V8.23672V8.25345V8.27025V8.28712V8.30406V8.32107V8.33816V8.35531V8.37254V8.38983V8.4072V8.42464V8.44215V8.45974V8.47739V8.49512V8.51292V8.5308V8.54874V8.56676V8.58485V8.60302V8.62126V8.63957V8.65796V8.67642V8.69495V8.71356V8.73224V8.751V8.76983V8.78874V8.80772V8.82678V8.84591V8.86512V8.8844V8.90376L15.0023 8.9044C15.0023 8.909 15.0024 8.91444 14.9891 8.9258C14.9726 8.93993 14.9216 8.97157 14.8158 8.97157H14.8158H14.8158H14.8158H14.8158H14.8157H14.8157H14.8157H14.8157H14.8157H14.8157H14.8156H14.8156H14.8156H14.8155H14.8155H14.8155H14.8154H14.8154H14.8153H14.8153H14.8152H14.8151H14.8151H14.815H14.8149H14.8148H14.8148H14.8147H14.8146H14.8145H14.8143H14.8142H14.8141H14.814H14.8138H14.8137H14.8136H14.8134H14.8132H14.8131H14.8129H14.8127H14.8125H14.8123H14.8121H14.8119H14.8117H14.8114H14.8112H14.8109H14.8107H14.8104H14.8101H14.8098H14.8096H14.8092H14.8089H14.8086H14.8083H14.8079H14.8076H14.8072H14.8068H14.8064H14.806H14.8056H14.8052H14.8048H14.8043H14.8038H14.8034H14.8029H14.8024H14.8019H14.8014H14.8008H14.8003H14.7997H14.7991H14.7986H14.798H14.7973H14.7967H14.7961H14.7954H14.7947H14.7941H14.7934H14.7926H14.7919H14.7912H14.7904H14.7896H14.7888H14.788H14.7872H14.7864H14.7855H14.7846H14.7837H14.7828H14.7819H14.781H14.78H14.779H14.778H14.777H14.776H14.775H14.7739H14.7728H14.7717H14.7706H14.7695H14.7683H14.7671H14.7659H14.7647H14.7635H14.7622H14.7609H14.7596H14.7583H14.757H14.7556H14.7543H14.7529H14.7514H14.75H14.7485H14.747H14.7455H14.744H14.7425H14.7409H14.7393H14.7377H14.7361H14.7344H14.7327H14.731H14.7293H14.7275H14.7257H14.7239H14.7221H14.7203H14.7184H14.7165H14.7146H14.7126H14.7107H14.7087H14.7066H14.7046H14.7025H14.7004H14.6983H14.6961H14.694H14.6918H14.6895H14.6873H14.685H14.6827H14.6804H14.678H14.6756H14.6732H14.6708H14.6683H14.6658H14.6633H14.6607H14.6581H14.6555H14.6529H14.6502H14.6475H14.6448H14.642H14.6392H14.6364H14.6335H14.6307H14.6278H14.6248H14.6219H14.6189H14.6158H14.6128H14.6097H14.6066H14.6034H14.6002H14.597H14.5937H14.5905H14.5871H14.5838H14.5804H14.577H14.5736H14.5701H14.5666H14.563H14.5595H14.5559H14.5522H14.5485H14.5448H14.5411H14.5373H14.5335H14.5296H14.5257H14.5218H14.5179H14.5139H14.5099H14.5058H14.5017H14.4976H14.4934H14.4892H14.485H14.4807H14.4764H14.472H14.4676H14.4632H14.4587H14.4542H14.4497H14.4451H14.4405H14.4358H14.4312H14.4264H14.4217H14.4169H14.412H14.4071H14.4022H14.3972H14.3922H14.3872H14.3821H14.377H14.3718H14.3666H14.3614H14.3561H14.3508H14.3454H14.34H14.3346H14.3291H14.3235H14.318H14.3123H14.3067H14.301H14.2952H14.2895H14.2836H14.2778H14.2719H14.2659H14.2599H14.2539H14.2478H14.2416H14.2355H14.2293H14.223H14.2167H14.2103H14.2039H14.1975H14.191H14.1845H14.1779H14.1713H14.1646H14.1579H14.1511H14.1443H14.1375H14.1306H14.1236H14.1167H14.1096H14.1025H14.0954H14.0882H14.081H14.0737H14.0664H14.059H14.0516H14.0441H14.0366H14.0291H14.0214H14.0138H14.0061H13.9983H13.9905H13.9826H13.9747H13.9668H13.9588H13.9507H13.9426H13.9344H13.9262H13.918H13.9096H13.9013H13.8929H13.8844H13.8759H13.8673H13.8587H13.85H13.8413H13.8325H13.8237H13.8148H13.8059H13.7969H13.7878H13.7787H13.7696H13.7604H13.7511H13.7418H13.7324H13.723H13.7135H13.704H13.6944H13.6848H13.6751H13.6653H13.6555H13.6457H13.6358H13.6258H13.6158H13.6057H13.5955H13.5853H13.5751H13.5648H13.5544H13.544H13.5335H13.523H13.5124H13.5017H13.491H13.4802H13.4694H13.4585H13.4476H13.4366H13.4255H13.4144H13.4032H13.3919H13.3806H13.3693H13.3579H13.3464H13.3348H13.3232H13.3116H13.2999H13.2881H13.2762H13.2643H13.2524H13.2403H13.2283H13.2161H13.2039H13.1916H13.1793H13.1669H13.1544H13.1419H13.1293H13.1167H13.104H13.0912H13.0784H13.0655H13.0525H13.0395H13.0264H13.0132H13H12.9867H12.9733H12.9599H12.9465H12.9329H12.9193H12.9056H12.8919H12.8781H12.8642H12.8503H12.8362H12.8222H12.808H12.7938H12.7796H12.7652H12.7508H12.7363H12.7218H12.7072H12.6925H12.6778H12.663H12.6481H12.6331H12.6181H12.603H12.5879H12.5726H12.5573H12.542H12.5265H12.511H12.4955H12.4798H12.4641H12.4483H12.4325H12.4166H12.4006H12.3845H12.3684H12.3521H12.3359H12.3195H12.3031H12.2866H12.27H12.2534H12.2367H12.2199H12.203H12.1861H12.1691H12.152H12.1349H12.1177H12.1004H12.083H12.0656H12.048H12.0304H12.0128H11.995H11.9772H11.9593H11.9414H11.9233H11.9052H11.887H11.8688H11.8504H11.832H11.8135H11.7949H11.7763H11.7576H11.7388H11.7199H11.7009H11.6819H11.6628H11.6436H11.6243H11.605H11.5856H11.5661H11.5465H11.5268H11.5071H11.4873H11.4674H11.4474H11.4274H11.4073H11.3871H11.3668H11.3464H11.3259H11.3054L13.1029 0.5Z" stroke="#F1223D"/>
<path d="M4.93718 7.81507V16.0766L4.70519 15.8596L0.545539 11.9695L0.521012 11.9466L0.501215 11.9325C0.504087 11.9204 0.513635 11.8961 0.545043 11.8668L0.545141 11.8667L0.545307 11.8665L0.545481 11.8664L0.545664 11.8662L0.545856 11.866L0.546057 11.8659L0.546268 11.8657L0.546488 11.8655L0.546717 11.8652L0.546957 11.865L0.547207 11.8648L0.547467 11.8646L0.547738 11.8643L0.54802 11.864L0.548313 11.8638L0.548617 11.8635L0.548933 11.8632L0.54926 11.8629L0.549599 11.8626L0.549951 11.8623L0.550314 11.8619L0.55069 11.8616L0.551079 11.8612L0.551481 11.8608L0.551896 11.8605L0.552325 11.8601L0.552767 11.8597L0.553223 11.8592L0.553693 11.8588L0.554177 11.8584L0.554675 11.8579L0.555189 11.8574L0.555717 11.8569L0.55626 11.8564L0.556819 11.8559L0.557393 11.8554L0.557982 11.8549L0.558588 11.8543L0.55921 11.8537L0.559848 11.8531L0.560503 11.8525L0.561175 11.8519L0.561863 11.8513L0.562569 11.8506L0.563292 11.85L0.564033 11.8493L0.564792 11.8486L0.565569 11.8479L0.566364 11.8471L0.567177 11.8464L0.568009 11.8456L0.568861 11.8448L0.569731 11.844L0.57062 11.8432L0.57153 11.8424L0.572459 11.8415L0.573408 11.8406L0.574377 11.8397L0.575366 11.8388L0.576376 11.8379L0.577407 11.8369L0.578459 11.836L0.579532 11.835L0.580627 11.834L0.581743 11.8329L0.582882 11.8319L0.584042 11.8308L0.585225 11.8297L0.58643 11.8286L0.587658 11.8275L0.588909 11.8263L0.590183 11.8251L0.59148 11.8239L0.592801 11.8227L0.594146 11.8215L0.595515 11.8202L0.596908 11.8189L0.598326 11.8176L0.599768 11.8163L0.601235 11.815L0.602727 11.8136L0.604244 11.8122L0.605787 11.8108L0.607356 11.8093L0.60895 11.8078L0.610571 11.8063L0.612218 11.8048L0.613892 11.8033L0.615592 11.8017L0.617319 11.8001L0.619074 11.7985L0.620856 11.7969L0.622666 11.7952L0.624503 11.7935L0.626369 11.7918L0.628262 11.79L0.630185 11.7882L0.632135 11.7864L0.634115 11.7846L0.636124 11.7828L0.638162 11.7809L0.64023 11.779L0.642328 11.777L0.644455 11.7751L0.646613 11.7731L0.648801 11.7711L0.65102 11.769L0.653269 11.7669L0.65555 11.7648L0.657862 11.7627L0.660205 11.7606L0.66258 11.7584L0.664987 11.7561L0.667426 11.7539L0.669897 11.7516L0.6724 11.7493L0.674937 11.747L0.677506 11.7446L0.680109 11.7422L0.682744 11.7398L0.685414 11.7373L0.688117 11.7348L0.690854 11.7323L0.693626 11.7297L0.696432 11.7271L0.699272 11.7245L0.702148 11.7219L0.705058 11.7192L0.708004 11.7165L0.710985 11.7137L0.714002 11.7109L0.717055 11.7081L0.720144 11.7053L0.723269 11.7024L0.726431 11.6995L0.729629 11.6965L0.732865 11.6935L0.736138 11.6905L0.739448 11.6874L0.742796 11.6844L0.746181 11.6812L0.749605 11.6781L0.753067 11.6749L0.756567 11.6717L0.760106 11.6684L0.763684 11.6651L0.767301 11.6618L0.770958 11.6584L0.774653 11.655L0.778389 11.6515L0.782165 11.648L0.78598 11.6445L0.789837 11.641L0.793733 11.6374L0.797671 11.6337L0.801649 11.6301L0.805669 11.6264L0.80973 11.6226L0.813833 11.6188L0.817978 11.615L0.822165 11.6111L0.826394 11.6072L0.830665 11.6033L0.83498 11.5993L0.839337 11.5953L0.843737 11.5912L0.848181 11.5871L0.852668 11.583L0.857199 11.5788L0.861775 11.5746L0.866394 11.5703L0.871058 11.566L0.875766 11.5617L0.880519 11.5573L0.885317 11.5529L0.890161 11.5484L0.89505 11.5439L0.899984 11.5394L0.904965 11.5348L0.909991 11.5301L0.915064 11.5254L0.920184 11.5207L0.92535 11.516L0.930564 11.5111L0.935824 11.5063L0.941132 11.5014L0.946487 11.4965L0.95189 11.4915L0.957342 11.4864L0.962841 11.4814L0.968389 11.4763L0.973986 11.4711L0.979631 11.4659L0.985326 11.4606L0.99107 11.4553L0.996863 11.45L1.00271 11.4446L1.0086 11.4392L1.01454 11.4337L1.02054 11.4281L1.02658 11.4226L1.03268 11.4169L1.03882 11.4113L1.04502 11.4056L1.05127 11.3998L1.05757 11.394L1.06392 11.3881L1.07032 11.3822L1.07678 11.3763L1.08329 11.3703L1.08985 11.3642L1.09647 11.3581L1.10313 11.352L1.10985 11.3458L1.11663 11.3395L1.12346 11.3332L1.13034 11.3269L1.13728 11.3205L1.14427 11.314L1.15131 11.3075L1.15841 11.301L1.16557 11.2944L1.17278 11.2877L1.18005 11.281L1.18737 11.2742L1.19474 11.2674L1.20218 11.2606L1.20967 11.2537L1.21722 11.2467L1.22482 11.2397L1.23248 11.2326L1.2402 11.2255L1.24797 11.2183L1.2558 11.2111L1.26369 11.2038L1.27164 11.1965L1.27965 11.1891L1.28771 11.1817L1.29584 11.1742L1.30402 11.1666L1.31226 11.159L1.32056 11.1514L1.32892 11.1437L1.33734 11.1359L1.34582 11.1281L1.35436 11.1202L1.36296 11.1123L1.37163 11.1043L1.38035 11.0962L1.38913 11.0881L1.39797 11.08L1.40688 11.0717L1.41585 11.0635L1.42488 11.0551L1.43397 11.0468L1.44312 11.0383L1.45234 11.0298L1.46161 11.0213L1.47096 11.0126L1.48036 11.004L1.48983 10.9952L1.49936 10.9864L1.50895 10.9776L1.51861 10.9687L1.52834 10.9597L1.53812 10.9507L1.54798 10.9416L1.55789 10.9324L1.56788 10.9232L1.57792 10.914L1.58804 10.9046L1.59821 10.8952L1.60846 10.8858L1.61877 10.8763L1.62915 10.8667L1.63959 10.8571L1.6501 10.8474L1.66068 10.8376L1.67132 10.8278L1.68203 10.8179L1.69281 10.808L1.70366 10.798L1.71457 10.7879L1.72556 10.7778L1.73661 10.7676L1.74773 10.7573L1.75892 10.747L1.77017 10.7366L1.7815 10.7262L1.7929 10.7156L1.80436 10.7051L1.8159 10.6944L1.82751 10.6837L1.83918 10.673L1.85093 10.6621L1.86275 10.6512L1.87464 10.6402L1.8866 10.6292L1.89863 10.6181L1.91074 10.6069L1.92291 10.5957L1.93516 10.5844L1.94748 10.5731L1.95987 10.5616L1.97233 10.5501L1.98487 10.5386L1.99748 10.5269L2.01017 10.5152L2.02292 10.5035L2.03576 10.4916L2.04866 10.4797L2.06164 10.4677L2.07469 10.4557L2.08782 10.4436L2.10103 10.4314L2.1143 10.4192L2.12766 10.4068L2.14109 10.3944L2.15459 10.382L2.16817 10.3695L2.18183 10.3569L2.19556 10.3442L2.20937 10.3315L2.22326 10.3186L2.23722 10.3058L2.25126 10.2928L2.26538 10.2798L2.27957 10.2667L2.29384 10.2535L2.30819 10.2403L2.32262 10.227L2.33713 10.2136L2.35172 10.2001L2.36638 10.1866L2.38113 10.173L2.39595 10.1593L2.41085 10.1456L2.42583 10.1318L2.4409 10.1179L2.45604 10.1039L2.47126 10.0899L2.48656 10.0757L2.50195 10.0616L2.51741 10.0473L2.53296 10.0329L2.54859 10.0185L2.5643 10.004L2.58009 9.98947L2.59596 9.97483L2.61192 9.96011L2.62795 9.94532L2.64407 9.93045L2.66028 9.9155L2.67656 9.90047L2.69293 9.88537L2.70939 9.87019L2.72592 9.85494L2.74254 9.83961L2.75925 9.8242L2.77604 9.80871L2.79291 9.79314L2.80987 9.7775L2.82692 9.76178L2.84404 9.74597L2.86126 9.73009L2.87856 9.71413L2.89594 9.6981L2.91342 9.68198L2.93097 9.66578L2.94862 9.6495L2.96635 9.63315L2.98417 9.61671L3.00207 9.60019L3.02007 9.58359L3.03815 9.56691L3.05632 9.55015L3.07457 9.53331L3.09292 9.51639L3.11135 9.49939L3.12987 9.4823L3.14848 9.46513L3.16718 9.44788L3.18597 9.43055L3.20485 9.41314L3.22381 9.39564L3.24287 9.37806L3.26202 9.36039L3.28126 9.34265L3.30059 9.32482L3.32001 9.3069L3.33952 9.2889L3.35912 9.27082L3.37881 9.25266L3.39859 9.2344L3.41847 9.21607L3.43844 9.19765L3.4585 9.17914L3.47865 9.16055L3.4989 9.14188L3.51924 9.12311L3.53967 9.10427L3.56019 9.08533L3.58081 9.06631L3.60152 9.0472L3.62233 9.02801L3.64323 9.00873L3.66422 8.98936L3.68531 8.96991L3.7065 8.95037L3.72777 8.93074L3.74915 8.91102L3.77062 8.89122L3.79218 8.87132L3.81384 8.85134L3.8356 8.83127L3.85745 8.81111L3.8794 8.79086L3.90145 8.77052L3.92359 8.7501L3.94583 8.72958L3.96817 8.70897L3.99061 8.68828L4.01314 8.66749L4.03577 8.64661L4.0585 8.62565L4.08133 8.60459L4.10425 8.58344L4.12728 8.5622L4.1504 8.54087L4.17363 8.51944L4.19695 8.49793L4.22037 8.47632L4.24389 8.45462L4.26752 8.43283L4.29124 8.41095L4.31506 8.38897L4.33899 8.3669L4.36301 8.34474L4.38714 8.32248L4.41136 8.30013L4.43569 8.27769L4.46012 8.25515L4.48466 8.23252L4.50929 8.20979L4.53403 8.18697L4.55887 8.16406L4.58381 8.14105L4.60886 8.11794L4.63401 8.09474L4.65926 8.07145L4.68462 8.04806L4.71008 8.02457L4.73564 8.00099L4.76131 7.97731L4.78708 7.95353L4.81296 7.92966L4.83895 7.90569L4.86503 7.88162L4.89123 7.85746L4.91753 7.8332L4.93718 7.81507Z" stroke="#F1223D"/>
<path d="M17.1566 19.5156H16.1239C15.504 19.5156 15.0151 19.031 15.0151 18.3753V18.3549V18.3346V18.3143V18.2941V18.274V18.254V18.2341V18.2142V18.1944V18.1747V18.1551V18.1355V18.1161V18.0967V18.0773V18.0581V18.0389V18.0199V18.0009V17.9819V17.9631V17.9443V17.9256V17.907V17.8884V17.87V17.8516V17.8333V17.815V17.7968V17.7787V17.7607V17.7428V17.7249V17.7071V17.6894V17.6718V17.6542V17.6367V17.6193V17.6019V17.5846V17.5674V17.5503V17.5333V17.5163V17.4994V17.4825V17.4658V17.4491V17.4324V17.4159V17.3994V17.383V17.3667V17.3504V17.3342V17.3181V17.3021V17.2861V17.2702V17.2543V17.2386V17.2229V17.2072V17.1917V17.1762V17.1608V17.1454V17.1301V17.1149V17.0998V17.0847V17.0697V17.0548V17.0399V17.0251V17.0104V16.9957V16.9811V16.9666V16.9521V16.9377V16.9234V16.9091V16.8949V16.8808V16.8667V16.8527V16.8388V16.8249V16.8111V16.7974V16.7837V16.7701V16.7566V16.7431V16.7297V16.7164V16.7031V16.6899V16.6767V16.6636V16.6506V16.6377V16.6248V16.6119V16.5992V16.5865V16.5738V16.5612V16.5487V16.5363V16.5239V16.5115V16.4993V16.4871V16.4749V16.4628V16.4508V16.4389V16.427V16.4151V16.4033V16.3916V16.38V16.3684V16.3568V16.3453V16.3339V16.3226V16.3113V16.3V16.2889V16.2777V16.2667V16.2557V16.2447V16.2338V16.223V16.2122V16.2015V16.1909V16.1803V16.1697V16.1592V16.1488V16.1385V16.1281V16.1179V16.1077V16.0975V16.0875V16.0774V16.0675V16.0575V16.0477V16.0379V16.0281V16.0184V16.0088V15.9992V15.9897V15.9802V15.9708V15.9614V15.9521V15.9428V15.9336V15.9244V15.9153V15.9063V15.8973V15.8884V15.8795V15.8706V15.8619V15.8531V15.8444V15.8358V15.8272V15.8187V15.8102V15.8018V15.7934V15.7851V15.7769V15.7686V15.7605V15.7524V15.7443V15.7363V15.7283V15.7204V15.7125V15.7047V15.6969V15.6892V15.6816V15.6739V15.6664V15.6588V15.6514V15.6439V15.6366V15.6292V15.6219V15.6147V15.6075V15.6004V15.5933V15.5862V15.5792V15.5723V15.5654V15.5585V15.5517V15.5449V15.5382V15.5315V15.5249V15.5183V15.5118V15.5053V15.4988V15.4924V15.4861V15.4797V15.4735V15.4672V15.4611V15.4549V15.4488V15.4428V15.4368V15.4308V15.4249V15.419V15.4132V15.4074V15.4016V15.3959V15.3902V15.3846V15.379V15.3735V15.368V15.3625V15.3571V15.3517V15.3464V15.3411V15.3358V15.3306V15.3254V15.3203V15.3152V15.3102V15.3051V15.3002V15.2952V15.2903V15.2855V15.2807V15.2759V15.2711V15.2664V15.2618V15.2571V15.2525V15.248V15.2435V15.239V15.2346V15.2302V15.2258V15.2215V15.2172V15.2129V15.2087V15.2045V15.2004V15.1963V15.1922V15.1882V15.1842V15.1802V15.1763V15.1724V15.1685V15.1647V15.1609V15.1571V15.1534V15.1497V15.146V15.1424V15.1388V15.1353V15.1317V15.1282V15.1248V15.1214V15.118V15.1146V15.1113V15.108V15.1047V15.1015V15.0983V15.0951V15.092V15.0889V15.0858V15.0828V15.0797V15.0768V15.0738V15.0709V15.068V15.0651V15.0623V15.0595V15.0567V15.054V15.0513V15.0486V15.0459V15.0433V15.0407V15.0381V15.0356V15.0331V15.0306V15.0281V15.0257V15.0233V15.0209V15.0186V15.0162V15.0139V15.0117V15.0094V15.0072V15.005V15.0029V15.0007V14.9986V14.9965V14.9945V14.9924V14.9904V14.9884V14.9865V14.9845V14.9826V14.9807V14.9789V14.977V14.9752V14.9734V14.9717V14.9699V14.9682V14.9665V14.9648V14.9632V14.9616V14.9599V14.9584V14.9568V14.9553V14.9537V14.9522V14.9508V14.9493V14.9479V14.9465V14.9451V14.9437V14.9424V14.941V14.9397V14.9384V14.9372V14.9359V14.9347V14.9335V14.9323V14.9311V14.93V14.9288V14.9277V14.9266V14.9255V14.9245V14.9234V14.9224V14.9214V14.9204V14.9195V14.9185V14.9176V14.9166V14.9157V14.9149V14.914V14.9131V14.9123V14.9115V14.9107V14.9099V14.9091V14.9084V14.9076V14.9069V14.9062V14.9055V14.9048V14.9041V14.9035V14.9028V14.9022V14.9016V14.901V14.9004V14.8999V14.8993V14.8988V14.8982V14.8977V14.8972V14.8967V14.8962V14.8958V14.8953V14.8949V14.8944V14.894V14.8936V14.8932V14.8928V14.8924V14.8921V14.8917V14.8914V14.891V14.8907V14.8904V14.8901V14.8898V14.8895V14.8892V14.889V14.8887V14.8884V14.8882V14.888V14.8878V14.8875V14.8873V14.8871V14.8869V14.8868V14.8866V14.8864V14.8862V14.8861V14.8859V14.8858V14.8857V14.8855V14.8854V14.8853V14.8852V14.8851V14.885V14.8849V14.8848V14.8847V14.8847V14.8846V14.8845V14.8844V14.8844V14.8843V14.8843V14.8842V14.8842V14.8842V14.8841V14.8841V14.8841V14.884V14.884V14.884V14.884V14.8839V14.8839V14.8839V14.8839V14.8839V14.8839V14.8839V14.8839V14.8839C15.0151 14.8755 15.0145 14.8675 14.9976 14.8532C14.9774 14.836 14.9219 14.804 14.8156 14.804H14.795H14.7746H14.7542H14.7339H14.7137H14.6936H14.6735H14.6536H14.6337H14.6139H14.5941H14.5745H14.5549H14.5354H14.516H14.4966H14.4774H14.4582H14.4391H14.4201H14.4011H14.3822H14.3634H14.3447H14.3261H14.3075H14.289H14.2706H14.2522H14.234H14.2158H14.1977H14.1796H14.1616H14.1438H14.1259H14.1082H14.0905H14.0729H14.0554H14.038H14.0206H14.0033H13.9861H13.969H13.9519H13.9349H13.9179H13.9011H13.8843H13.8676H13.851H13.8344H13.8179H13.8015H13.7851H13.7688H13.7526H13.7365H13.7204H13.7044H13.6885H13.6727H13.6569H13.6412H13.6255H13.6099H13.5944H13.579H13.5636H13.5484H13.5331H13.518H13.5029H13.4879H13.4729H13.458H13.4432H13.4285H13.4138H13.3992H13.3847H13.3702H13.3558H13.3414H13.3272H13.313H13.2988H13.2847H13.2707H13.2568H13.2429H13.2291H13.2154H13.2017H13.1881H13.1745H13.1611H13.1476H13.1343H13.121H13.1078H13.0946H13.0815H13.0685H13.0555H13.0426H13.0298H13.017H13.0043H12.9917H12.9791H12.9666H12.9541H12.9417H12.9294H12.9171H12.9049H12.8927H12.8806H12.8686H12.8566H12.8447H12.8329H12.8211H12.8094H12.7977H12.7861H12.7746H12.7631H12.7517H12.7403H12.729H12.7178H12.7066H12.6955H12.6844H12.6734H12.6625H12.6516H12.6408H12.63H12.6193H12.6086H12.598H12.5875H12.577H12.5666H12.5562H12.5459H12.5357H12.5255H12.5153H12.5052H12.4952H12.4852H12.4753H12.4655H12.4557H12.4459H12.4362H12.4266H12.417H12.4075H12.398H12.3886H12.3792H12.3699H12.3606H12.3514H12.3423H12.3332H12.3241H12.3151H12.3062H12.2973H12.2885H12.2797H12.271H12.2623H12.2537H12.2451H12.2366H12.2281H12.2197H12.2113H12.203H12.1948H12.1866H12.1784H12.1703H12.1622H12.1542H12.1463H12.1383H12.1305H12.1227H12.1149H12.1072H12.0995H12.0919H12.0844H12.0768H12.0694H12.062H12.0546H12.0473H12.04H12.0328H12.0256H12.0185H12.0114H12.0043H11.9973H11.9904H11.9835H11.9766H11.9698H11.9631H11.9564H11.9497H11.9431H11.9365H11.93H11.9235H11.917H11.9107H11.9043H11.898H11.8917H11.8855H11.8793H11.8732H11.8671H11.8611H11.8551H11.8491H11.8432H11.8373H11.8315H11.8257H11.82H11.8143H11.8086H11.803H11.7975H11.7919H11.7864H11.781H11.7756H11.7702H11.7649H11.7596H11.7544H11.7492H11.744H11.7389H11.7338H11.7288H11.7238H11.7188H11.7139H11.709H11.7041H11.6993H11.6946H11.6898H11.6851H11.6805H11.6759H11.6713H11.6668H11.6623H11.6578H11.6534H11.649H11.6446H11.6403H11.636H11.6318H11.6276H11.6234H11.6193H11.6152H11.6111H11.6071H11.6031H11.5992H11.5952H11.5914H11.5875H11.5837H11.5799H11.5762H11.5725H11.5688H11.5651H11.5615H11.5579H11.5544H11.5509H11.5474H11.544H11.5406H11.5372H11.5338H11.5305H11.5272H11.524H11.5208H11.5176H11.5144H11.5113H11.5082H11.5052H11.5021H11.4991H11.4962H11.4932H11.4903H11.4874H11.4846H11.4818H11.479H11.4762H11.4735H11.4708H11.4681H11.4655H11.4629H11.4603H11.4577H11.4552H11.4527H11.4502H11.4478H11.4454H11.443H11.4406H11.4383H11.436H11.4337H11.4314H11.4292H11.427H11.4248H11.4227H11.4206H11.4185H11.4164H11.4144H11.4123H11.4103H11.4084H11.4064H11.4045H11.4026H11.4007H11.3989H11.3971H11.3953H11.3935H11.3917H11.39H11.3883H11.3866H11.3849H11.3833H11.3817H11.3801H11.3785H11.377H11.3754H11.3739H11.3725H11.371H11.3696H11.3681H11.3667H11.3654H11.364H11.3627H11.3613H11.3601H11.3588H11.3575H11.3563H11.3551H11.3539H11.3527H11.3515H11.3504H11.3493H11.3482H11.3471H11.346H11.345H11.344H11.3429H11.3419H11.341H11.34H11.3391H11.3382H11.3372H11.3364H11.3355H11.3346H11.3338H11.333H11.3322H11.3314H11.3306H11.3298H11.3291H11.3283H11.3276H11.3269H11.3262H11.3256H11.3249H11.3243H11.3236H11.323H11.3224H11.3218H11.3213H11.3207H11.3202H11.3196H11.3191H11.3186H11.3181H11.3176H11.3171H11.3167H11.3162H11.3158H11.3154H11.315H11.3146H11.3142H11.3138H11.3134H11.3131H11.3127H11.3124H11.3121H11.3117H11.3114H11.3111H11.3109H11.3106H11.3103H11.31H11.3098H11.3096H11.3093H11.3091H11.3089H11.3087H11.3085H11.3083H11.3081H11.3079H11.3077H11.3076H11.3074H11.3073H11.3071H11.307H11.3069H11.3068H11.3066H11.3065H11.3064H11.3063H11.3062H11.3061H11.3061H11.306H11.3059H11.3058H11.3058H11.3057H11.3057H11.3056H11.3056H11.3055H11.3055H11.3054H11.3054H11.3054H11.3054H11.3053H11.3053H11.3053H11.3053H11.3053H11.3052H11.3052H11.3052H11.3052H11.3052H11.3052H11.3052H11.3052H11.3052V14.5111V14.304C10.9555 14.304 10.6834 14.5577 10.6834 14.8839V18.3753C10.6834 18.7619 10.4114 19.0156 10.0617 19.0156H8.19116L8.20114 19.0249L8.22856 19.0506L8.25587 19.0761L8.28308 19.1016L8.31018 19.1269L8.33717 19.1522L8.36406 19.1773L8.39085 19.2024L8.41752 19.2273L8.44409 19.2522L8.47056 19.2769L8.49692 19.3016L8.52317 19.3261L8.54932 19.3506L8.57537 19.3749L8.60131 19.3992L8.62715 19.4234L8.65288 19.4474L8.67851 19.4714L8.70403 19.4953L8.72578 19.5156M17.1566 19.5156L17.2687 19.5731L16.9298 19.8901M17.1566 19.5156L16.6296 19.8901H16.9298M17.1566 19.5156L13.1663 23.4099M8.72578 19.5156H8.72316H8.71752H8.71191H8.70633H8.70079H8.69528H8.68979H8.68434H8.67893H8.67354H8.66818H8.66285H8.65756H8.65229H8.64706H8.64186H8.63669H8.63154H8.62643H8.62135H8.6163H8.61128H8.60629H8.60132H8.59639H8.59149H8.58662H8.58178H8.57696H8.57218H8.56742H8.5627H8.558H8.55333H8.54869H8.54409H8.5395H8.53495H8.53043H8.52593H8.52147H8.51703H8.51262H8.50823H8.50388H8.49955H8.49525H8.49098H8.48674H8.48252H8.47833H8.47417H8.47004H8.46593H8.46185H8.4578H8.45378H8.44978H8.44581H8.44186H8.43794H8.43405H8.43018H8.42634H8.42253H8.41874H8.41498H8.41125H8.40754H8.40385H8.4002H8.39656H8.39296H8.38937H8.38582H8.38229H8.37878H8.3753H8.37185H8.36841H8.36501H8.36163H8.35827H8.35494H8.35163H8.34835H8.34509H8.34185H8.33864H8.33545H8.33229H8.32915H8.32603H8.32294H8.31987H8.31683H8.3138H8.31081H8.30783H8.30488H8.30195H8.29904H8.29616H8.2933H8.29046H8.28764H8.28485H8.28208H8.27933H8.2766H8.2739H8.27121H8.26855H8.26591H8.2633H8.2607H8.25813H8.25557H8.25304H8.25053H8.24804H8.24558H8.24313H8.2407H8.2383H8.23591H8.23355H8.23121H8.22888H8.22658H8.2243H8.22204H8.2198H8.21757H8.21537H8.21319H8.21103H8.20889H8.20676H8.20466H8.20257H8.20051H8.19846H8.19644H8.19443H8.19244H8.19047H8.18852H8.18659H8.18468H8.18278H8.1809H8.17905H8.1772H8.17538H8.17358H8.17179H8.17002H8.16827H8.16654H8.16483H8.16313H8.16145H8.15978H8.15814H8.15651H8.1549H8.1533H8.15173H8.15017H8.14862H8.14709H8.14558H8.14409H8.14261H8.14115H8.1397H8.13827H8.13686H8.13546H8.13408H8.13271H8.13136H8.13002H8.1287H8.1274H8.12611H8.12484H8.12358H8.12233H8.1211H8.11989H8.11869H8.1175H8.11633H8.11518H8.11404H8.11291H8.1118H8.1107H8.10961H8.10854H8.10748H8.10644H8.10541H8.10439H8.10339H8.1024H8.10142H8.10046H8.09951H8.09857H8.09765H8.09674H8.09584H8.09495H8.09408H8.09322H8.09237H8.09153H8.09071H8.0899H8.0891H8.08831H8.08754H8.08677H8.08602H8.08528H8.08455H8.08383H8.08312H8.08243H8.08174H8.08107H8.08041H8.07976H8.07911H8.07848H8.07786H8.07726H8.07666H8.07607H8.07549H8.07492H8.07436H8.07382H8.07328H8.07275H8.07223H8.07172H8.07122H8.07073H8.07025H8.06978H8.06932H8.06887H8.06842H8.06799H8.06756H8.06714H8.06673H8.06633H8.06594H8.06555H8.06518H8.06481H8.06445H8.0641H8.06376H8.06342H8.06309H8.06277H8.06246H8.06215H8.06186H8.06157H8.06128H8.061H8.06074H8.06047H8.06022H8.05997H8.05973H8.05949H8.05926H8.05904H8.05882H8.05861H8.05841H8.05821H8.05801H8.05783H8.05765H8.05747H8.0573H8.05714H8.05698H8.05682H8.05668H8.05653H8.05639H8.05626H8.05613H8.05601H8.05589H8.05578H8.05567H8.05556H8.05546H8.05536H8.05527H8.05518H8.0551H8.05501H8.05494H8.05486H8.05479H8.05473H8.05466H8.0546H8.05455H8.05449H8.05444H8.0544H8.05435H8.05431H8.05427H8.05423H8.0542H8.05417H8.05414H8.05411H8.05409H8.05407H8.05404H8.05403H8.05401H8.05399H8.05398H8.05397H8.05396H8.05395H8.05394H8.05393H8.05393H8.05392H8.05392H8.05391H8.05391C8.02047 19.5156 8.00538 19.5194 8.00535 19.5193C8.00534 19.5192 8.00656 19.5189 8.00892 19.518L8.00904 19.518C8.01117 19.5172 8.02917 19.5109 8.05391 19.4942C8.0821 19.4751 8.11904 19.4426 8.1512 19.3895C8.18429 19.3349 8.20569 19.2679 8.20697 19.1955C8.20804 19.1347 8.19476 19.0845 8.17954 19.048C8.17711 19.0422 8.17462 19.0367 8.17214 19.0316C8.16935 19.0259 8.16655 19.0205 8.16378 19.0156H8.11364H8.05391C7.71712 19.0156 7.57463 19.1968 7.85961 19.3901L12.5487 23.7756C12.6783 23.9084 12.8596 23.9688 13.028 23.9688C13.1964 23.9688 13.3648 23.9084 13.5073 23.7756M8.72578 19.5156L8.72946 19.519L8.75478 19.5427L8.77999 19.5663L8.80511 19.5898L8.83012 19.6132L8.85503 19.6365L8.87983 19.6597L8.90454 19.6828L8.92914 19.7058L8.95364 19.7287L8.97804 19.7515L9.00234 19.7743L9.02654 19.7969L9.05064 19.8194L9.07464 19.8419L9.09853 19.8642L9.12233 19.8865L9.14603 19.9086L9.16963 19.9307L9.19312 19.9527L9.21652 19.9746L9.23982 19.9964L9.26303 20.0181L9.28613 20.0397L9.30913 20.0612L9.33204 20.0826L9.35485 20.1039L9.37756 20.1252L9.40018 20.1463L9.42269 20.1674L9.44511 20.1883L9.46743 20.2092L9.48966 20.23L9.51179 20.2507L9.53382 20.2713L9.55576 20.2918L9.5776 20.3123L9.59935 20.3326L9.621 20.3528L9.64255 20.373L9.66402 20.3931L9.68538 20.4131L9.70665 20.433L9.72783 20.4528L9.74891 20.4725L9.7699 20.4921L9.7908 20.5116L9.8116 20.5311L9.83231 20.5505L9.85292 20.5697L9.87344 20.5889L9.89387 20.608L9.91421 20.6271L9.93446 20.646L9.95461 20.6648L9.97467 20.6836L9.99464 20.7023L10.0145 20.7209L10.0343 20.7394L10.054 20.7578L10.0736 20.7761L10.0931 20.7944L10.1125 20.8126L10.1319 20.8306L10.1511 20.8486L10.1703 20.8666L10.1893 20.8844L10.2083 20.9021L10.2272 20.9198L10.246 20.9374L10.2647 20.9549L10.2833 20.9723L10.3019 20.9896L10.3203 21.0069L10.3387 21.024L10.3569 21.0411L10.3751 21.0581L10.3932 21.075L10.4112 21.0919L10.4291 21.1087L10.447 21.1253L10.4647 21.1419L10.4824 21.1584L10.5 21.1749L10.5175 21.1912L10.5349 21.2075L10.5522 21.2237L10.5694 21.2398L10.5866 21.2559L10.6036 21.2718L10.6206 21.2877L10.6375 21.3035L10.6543 21.3192L10.671 21.3349L10.6877 21.3504L10.7042 21.3659L10.7207 21.3813L10.7371 21.3967L10.7534 21.4119L10.7697 21.4271L10.7858 21.4422L10.8019 21.4572L10.8178 21.4722L10.8337 21.4871L10.8496 21.5018L10.8653 21.5166L10.881 21.5312L10.8965 21.5458L10.912 21.5603L10.9274 21.5747L10.9428 21.589L10.958 21.6033L10.9732 21.6175L10.9883 21.6316L11.0033 21.6456L11.0183 21.6596L11.0331 21.6735L11.0479 21.6873L11.0626 21.7011L11.0772 21.7147L11.0918 21.7284L11.1062 21.7419L11.1206 21.7553L11.1349 21.7687L11.1492 21.782L11.1633 21.7953L11.1774 21.8084L11.1914 21.8215L11.2053 21.8346L11.2192 21.8475L11.2329 21.8604L11.2466 21.8732L11.2603 21.8859L11.2738 21.8986L11.2873 21.9112L11.3007 21.9237L11.314 21.9362L11.3272 21.9486L11.3404 21.9609L11.3535 21.9731L11.3665 21.9853L11.3795 21.9974L11.3923 22.0095L11.4052 22.0214L11.4179 22.0334L11.4305 22.0452L11.4431 22.057L11.4556 22.0687L11.4681 22.0803L11.4804 22.0919L11.4927 22.1034L11.505 22.1148L11.5171 22.1262L11.5292 22.1374L11.5412 22.1487L11.5531 22.1598L11.565 22.1709L11.5768 22.182L11.5885 22.1929L11.6002 22.2038L11.6118 22.2147L11.6233 22.2255L11.6347 22.2362L11.6461 22.2468L11.6574 22.2574L11.6687 22.2679L11.6798 22.2783L11.6909 22.2887L11.702 22.2991L11.713 22.3093L11.7239 22.3195L11.7347 22.3296L11.7455 22.3397L11.7562 22.3497L11.7668 22.3597L11.7773 22.3695L11.7878 22.3794L11.7983 22.3891L11.8086 22.3988L11.8189 22.4084L11.8292 22.418L11.8394 22.4275L11.8495 22.437L11.8595 22.4464L11.8695 22.4557L11.8794 22.465L11.8892 22.4742L11.899 22.4833L11.9087 22.4924L11.9184 22.5014L11.928 22.5104L11.9375 22.5193L11.947 22.5282L11.9564 22.537L11.9657 22.5457L11.975 22.5544L11.9842 22.563L11.9934 22.5716L12.0024 22.5801L12.0115 22.5885L12.0204 22.5969L12.0293 22.6052L12.0382 22.6135L12.047 22.6217L12.0557 22.6299L12.0644 22.638L12.073 22.646L12.0815 22.654L12.09 22.6619L12.0984 22.6698L12.1068 22.6776L12.1151 22.6854L12.1233 22.6931L12.1315 22.7008L12.1396 22.7084L12.1477 22.7159L12.1557 22.7234L12.1637 22.7309L12.1716 22.7382L12.1794 22.7456L12.1872 22.7529L12.1949 22.7601L12.2026 22.7672L12.2102 22.7744L12.2178 22.7814L12.2253 22.7884L12.2327 22.7954L12.2401 22.8023L12.2474 22.8092L12.2547 22.816L12.2619 22.8227L12.2691 22.8294L12.2762 22.8361L12.2833 22.8427L12.2903 22.8492L12.2972 22.8557L12.3041 22.8622L12.311 22.8686L12.3177 22.8749L12.3245 22.8812L12.3312 22.8875L12.3378 22.8937L12.3444 22.8998L12.3509 22.9059L12.3574 22.912L12.3638 22.918L12.3702 22.924L12.3765 22.9299L12.3827 22.9357L12.389 22.9415L12.3951 22.9473L12.4012 22.953L12.4073 22.9587L12.4133 22.9643L12.4193 22.9699L12.4252 22.9754L12.431 22.9809L12.4369 22.9863L12.4426 22.9917L12.4483 22.9971L12.454 23.0024L12.4596 23.0076L12.4652 23.0128L12.4707 23.018L12.4762 23.0231L12.4816 23.0282L12.487 23.0332L12.4923 23.0382L12.4976 23.0431L12.5028 23.048L12.508 23.0529L12.5132 23.0577L12.5183 23.0625L12.5233 23.0672L12.5283 23.0719L12.5333 23.0765L12.5382 23.0811L12.543 23.0856L12.5479 23.0902L12.5526 23.0946L12.5574 23.099L12.5621 23.1034L12.5667 23.1078L12.5713 23.1121L12.5759 23.1163L12.5804 23.1206L12.5848 23.1247L12.5893 23.1289L12.5937 23.133L12.598 23.137L12.6023 23.1411L12.6066 23.145L12.6108 23.149L12.6149 23.1529L12.6191 23.1567L12.6232 23.1606L12.6272 23.1644L12.6312 23.1681L12.6352 23.1718L12.6391 23.1755L12.643 23.1791L12.6468 23.1827L12.6506 23.1863L12.6544 23.1898L12.6581 23.1933L12.6618 23.1967L12.6654 23.2001L12.6691 23.2035L12.6726 23.2068L12.6761 23.2101L12.6796 23.2134L12.6831 23.2166L12.6865 23.2198L12.6899 23.223L12.6932 23.2261L12.6965 23.2292L12.6998 23.2322L12.703 23.2353L12.7062 23.2382L12.7094 23.2412L12.7125 23.2441L12.7156 23.247L12.7186 23.2498L12.7216 23.2527L12.7246 23.2554L12.7275 23.2582L12.7304 23.2609L12.7333 23.2636L12.7362 23.2662L12.739 23.2689L12.7417 23.2715L12.7445 23.274L12.7472 23.2765L12.7498 23.279L12.7525 23.2815L12.7551 23.2839L12.7576 23.2863L12.7602 23.2887L12.7627 23.291L12.7651 23.2933L12.7676 23.2956L12.77 23.2979L12.7723 23.3001L12.7747 23.3023L12.777 23.3044L12.7793 23.3066L12.7815 23.3087L12.7837 23.3108L12.7859 23.3128L12.7881 23.3148L12.7902 23.3168L12.7923 23.3188L12.7944 23.3207L12.7964 23.3226L12.7984 23.3245L12.8004 23.3264L12.8024 23.3282L12.8043 23.33L12.8062 23.3318L12.8081 23.3335L12.8099 23.3352L12.8117 23.3369L12.8135 23.3386L12.8153 23.3402L12.817 23.3418L12.8187 23.3434L12.8204 23.345L12.822 23.3466L12.8236 23.3481L12.8252 23.3496L12.8268 23.351L12.8284 23.3525L12.8299 23.3539L12.8314 23.3553L12.8329 23.3567L12.8343 23.358L12.8357 23.3594L12.8371 23.3607L12.8385 23.362L12.8398 23.3632L12.8412 23.3645L12.8425 23.3657L12.8438 23.3669L12.845 23.3681L12.8462 23.3692L12.8475 23.3703L12.8486 23.3715L12.8498 23.3725L12.851 23.3736L12.8521 23.3747L12.8532 23.3757L12.8543 23.3767L12.8553 23.3777L12.8564 23.3787L12.8574 23.3796L12.8584 23.3806L12.8593 23.3815L12.8603 23.3824L12.8612 23.3832L12.8622 23.3841L12.8631 23.3849L12.8639 23.3857L12.8648 23.3866L12.8656 23.3873L12.8664 23.3881L12.8673 23.3889L12.868 23.3896L12.8688 23.3903L12.8696 23.391L12.8703 23.3917L12.871 23.3924L12.8717 23.393L12.8724 23.3936L12.873 23.3943L12.8737 23.3949L12.8743 23.3955L12.8749 23.396L12.8755 23.3966L12.8761 23.3971L12.8767 23.3977L12.8772 23.3982L12.8778 23.3987L12.8783 23.3992L12.8788 23.3996L12.8793 23.4001L12.8798 23.4005L12.8802 23.401L12.8807 23.4014L12.8811 23.4018L12.8815 23.4022L12.8819 23.4026L12.8823 23.403L12.8827 23.4033L12.8831 23.4037L12.8834 23.404L12.8838 23.4043L12.8841 23.4046L12.8844 23.4049L12.8848 23.4052L12.8851 23.4055L12.8853 23.4058L12.8856 23.406L12.8859 23.4063L12.8861 23.4065L12.8864 23.4068L12.8866 23.407L12.8869 23.4072L12.8871 23.4074L12.8873 23.4076L12.8875 23.4078L12.8877 23.408L12.8879 23.4081L12.888 23.4083L12.8882 23.4084L12.8883 23.4086L12.8885 23.4087L12.8886 23.4088L12.8888 23.409L12.8889 23.4091L12.889 23.4092L12.8891 23.4093L12.8892 23.4094L12.8893 23.4095L12.8894 23.4096L12.8895 23.4097L12.8896 23.4097L12.8896 23.4098L12.8897 23.4099L12.8898 23.4099L12.8898 23.41L12.8899 23.41L12.8899 23.4101L12.89 23.4101L12.89 23.4101L12.8901 23.4102L12.8901 23.4102L12.8901 23.4102L12.8901 23.4103L12.8902 23.4103L12.8902 23.4103L12.8902 23.4103L12.8902 23.4103L12.8902 23.4103L12.8902 23.4103L12.8902 23.4104L12.8903 23.4104L12.8903 23.4104L12.8987 23.4183L12.9068 23.4266C12.9162 23.4362 12.9309 23.4468 12.953 23.4553C12.9759 23.464 13.0023 23.4688 13.028 23.4688C13.0712 23.4688 13.1173 23.4555 13.1661 23.41M8.72578 19.5156H8.72883H8.73453H8.74027H8.74604H8.75184H8.75767H8.76353H8.76943H8.77536H8.78132H8.78732H8.79335H8.79941H8.8055H8.81163H8.81779H8.82398H8.83021H8.83647H8.84276H8.84909H8.85545H8.86185H8.86828H8.87474H8.88124H8.88777H8.89434H8.90094H8.90757H8.91424H8.92094H8.92768H8.93446H8.94126H8.94811H8.95499H8.9619H8.96885H8.97583H8.98285H8.98991H8.997H9.00412H9.01129H9.01849H9.02572H9.03299H9.0403H9.04764H9.05502H9.06243H9.06989H9.07738H9.0849H9.09246H9.10006H9.1077H9.11537H9.12308H9.13083H9.13861H9.14644H9.1543H9.16219H9.17013H9.1781H9.18611H9.19416H9.20225H9.21037H9.21854H9.22674H9.23498H9.24326H9.25157H9.25993H9.26832H9.27676H9.28523H9.29374H9.30229H9.31088H9.31951H9.32818H9.33689H9.34564H9.35442H9.36325H9.37212H9.38102H9.38997H9.39896H9.40798H9.41705H9.42616H9.43531H9.4445H9.45373H9.463H9.47231H9.48166H9.49105H9.50049H9.50996H9.51948H9.52904H9.53864H9.54828H9.55796H9.56769H9.57745H9.58726H9.59711H9.607H9.61694H9.62691H9.63693H9.64699H9.6571H9.66725H9.67743H9.68767H9.69794H9.70826H9.71862H9.72903H9.73947H9.74996H9.7605H9.77108H9.7817H9.79236H9.80307H9.81383H9.82462H9.83546H9.84635H9.85728H9.86825H9.87927H9.89033H9.90144H9.91259H9.92379H9.93503H9.94632H9.95765H9.96903H9.98045H9.99192H10.0034H10.015H10.0266H10.0382H10.0499H10.0617L13.1661 23.41M13.5073 23.7756L17.6618 19.8901H16.9298M13.5073 23.7756L13.1657 23.4104L13.1661 23.41M13.5073 23.7756L13.1663 23.4099M16.9298 19.8901L13.1663 23.4099M13.1663 23.4099L13.1661 23.41M18.1964 19.3901C18.1964 19.2073 18.2586 19.1336 18.3315 19.1405L18.1964 19.3901ZM18.1964 19.3901L17.975 19.5971L18.1964 19.3901Z" stroke="#F1223D"/>
</svg>
