<svg width="17" height="16" viewBox="0 0 17 16" fill="none" xmlns="http://www.w3.org/2000/svg">
<path d="M5.67706 14.5032H4.11804C2.39599 14.5032 1 13.1072 1 11.3852V6.48021C1 5.38988 1.56952 4.37876 2.50195 3.81365L6.39951 1.4515C7.39284 0.8495 8.63835 0.8495 9.63168 1.4515L13.5292 3.81365C14.4617 4.37876 15.0312 5.38988 15.0312 6.48021V11.3852C15.0312 13.1072 13.6352 14.5032 11.9131 14.5032H10.3541M5.67706 14.5032V11.3852C5.67706 10.0936 6.72402 9.04667 8.01559 9.04667C9.30717 9.04667 10.3541 10.0936 10.3541 11.3852V14.5032M5.67706 14.5032H10.3541" stroke="#1E1E1E" stroke-width="2" stroke-linecap="round" stroke-linejoin="round"/>
</svg>
