<svg width="24" height="26" viewBox="0 0 24 26" fill="none" xmlns="http://www.w3.org/2000/svg">
<path fill-rule="evenodd" clip-rule="evenodd" d="M24 13.0597C24 20.0284 18.6274 25.6776 12 25.6776C5.37258 25.6776 0 20.0284 0 13.0597C0 6.09104 5.37258 0.441803 12 0.441803C18.6274 0.441803 24 6.09104 24 13.0597ZM8.03576 11.9039C6.83367 12.4557 5.59854 13.0228 4.46913 13.6769L4.46905 13.677C3.8793 14.131 4.66319 14.4522 5.39853 14.7534C5.51543 14.8013 5.63111 14.8487 5.73985 14.896C5.83033 14.9253 5.92235 14.9561 6.01559 14.9873C6.83342 15.2613 7.74537 15.5668 8.53935 15.1072C9.84363 14.3194 11.0745 13.4086 12.3044 12.4985C12.7074 12.2003 13.1102 11.9022 13.5155 11.6085C13.5345 11.5957 13.556 11.5811 13.5794 11.5652C13.9247 11.3298 14.7012 10.8005 14.414 11.5298C13.7347 12.3109 13.0072 13.0023 12.2757 13.6974C11.7827 14.1659 11.288 14.6361 10.805 15.1367C10.3843 15.4961 9.94746 16.2188 10.4185 16.7221C11.5034 17.5207 12.6053 18.3 13.7065 19.0788C14.0649 19.3322 14.4233 19.5857 14.7809 19.8397C15.387 20.3485 16.3343 19.9369 16.4675 19.1418C16.5268 18.776 16.5863 18.4102 16.6458 18.0444C16.9746 16.0231 17.3035 14.0011 17.594 11.9733C17.6335 11.6552 17.6783 11.3371 17.7231 11.0188C17.8316 10.2475 17.9403 9.47523 17.9742 8.69975C17.8867 7.92588 16.9944 8.09603 16.4977 8.27004C13.9451 9.29136 11.418 10.3884 8.90093 11.5047C8.61578 11.6376 8.32674 11.7703 8.03576 11.9039Z" fill="#34302B"/>
</svg>
