<svg width="22" height="22" viewBox="0 0 22 22" fill="none" xmlns="http://www.w3.org/2000/svg">
<g clip-path="url(#clip0_87_3660)">
<path d="M0.773682 1.09521H4.49509L5.8208 14.2762C5.8759 14.6395 6.06047 14.9707 6.3405 15.2087C6.62051 15.4468 6.97713 15.5755 7.34461 15.5714H16.9446C17.277 15.5888 17.6058 15.4968 17.8808 15.3098C18.156 15.1226 18.3624 14.8506 18.4684 14.5352M5.02842 6.42855H9.33341" stroke="white" stroke-width="1.52" stroke-linecap="round" stroke-linejoin="round"/>
<path d="M16 3.48312L16 11.4831M20 7.48312L12 7.48312" stroke="white" stroke-width="1.52" stroke-linecap="round" stroke-linejoin="round"/>
<path d="M16.6857 20.9049C16.265 20.9049 15.9238 20.5637 15.9238 20.143C15.9238 19.7223 16.265 19.3811 16.6857 19.3811C17.1065 19.3811 17.4476 19.7223 17.4476 20.143C17.4476 20.5637 17.1065 20.9049 16.6857 20.9049Z" stroke="white" stroke-width="1.52" stroke-linecap="round" stroke-linejoin="round"/>
<path d="M6.78095 20.9049C6.36015 20.9049 6.01904 20.5637 6.01904 20.143C6.01904 19.7223 6.36015 19.3811 6.78095 19.3811C7.20173 19.3811 7.54285 19.7223 7.54285 20.143C7.54285 20.5637 7.20173 20.9049 6.78095 20.9049Z" stroke="white" stroke-width="1.52" stroke-linecap="round" stroke-linejoin="round"/>
</g>
<defs>
<clipPath id="clip0_87_3660">
<rect width="21.3333" height="21.3333" fill="white" transform="translate(0 0.333344)"/>
</clipPath>
</defs>
</svg>
