<svg width="16" height="22" viewBox="0 0 16 22" fill="none" xmlns="http://www.w3.org/2000/svg">
<path d="M15.3036 12.6299C15.303 12.6298 7.59259 10.9815 7.59259 10.9815C5.2944 10.4902 3.85272 8.33199 4.37265 6.16087C4.89289 3.98976 7.17764 2.62817 9.47584 3.11932C11.7742 3.61064 13.2157 5.76889 12.6957 7.93985C12.4352 9.02682 11.7323 9.91007 10.8069 10.4603C10.8067 10.4603 10.8045 10.4625 10.8036 10.4625C10.7764 10.481 10.7588 10.511 10.7588 10.5448C10.7588 10.5922 10.7934 10.632 10.8402 10.6425C10.8403 10.6427 14.2702 11.3754 14.2708 11.3754C14.3525 11.3929 14.4372 11.3631 14.4873 11.3005C15.4323 10.1194 16 8.64551 16 7.05147C16 3.29752 12.8953 0.229683 8.97912 0.0117924C8.94421 0.00962978 8.73198 0.00208318 8.66028 0.00100189C6.92638 -0.0247328 5.16837 0.4449 3.63961 1.45626C-0.221084 4.00985 -1.15909 9.03616 1.54386 12.683L8.40384 21.9378C8.43314 21.9756 8.48031 22 8.53323 22C8.58661 22 8.63393 21.9751 8.66308 21.9372C8.66308 21.9372 15.3994 12.8622 15.4 12.8614C15.4172 12.8374 15.4274 12.8082 15.4274 12.777C15.4274 12.7052 15.3746 12.6453 15.3036 12.6299Z" fill="#FABC26"/>
</svg>
