<svg width="59" height="59" viewBox="0 0 59 59" fill="none" xmlns="http://www.w3.org/2000/svg">
<circle cx="29.5" cy="29.5" r="29.5" fill="#34302B"/>
<path d="M30.5133 23.1683H26.9725C24.9016 23.1683 24.1666 21.7158 24.1666 20.3625V15.6375C24.1666 13.6192 24.9541 12.8317 26.9725 12.8317H30.5133C32.5316 12.8317 33.3191 13.6192 33.3191 15.6375V20.3625C33.3191 22.3808 32.5316 23.1683 30.5133 23.1683ZM26.9725 13.7183C25.45 13.7183 25.0533 14.115 25.0533 15.6375V20.3625C25.0533 21.08 25.3041 22.2817 26.9725 22.2817H30.5133C32.0358 22.2817 32.4325 21.885 32.4325 20.3625V15.6375C32.4325 14.115 32.0358 13.7183 30.5133 13.7183H26.9725Z" fill="white"/>
<path d="M35.1216 21.5642C34.8707 21.5642 34.5499 21.4825 34.1824 21.2258L32.6249 20.135C32.5082 20.0533 32.4382 19.9192 32.4382 19.7733V16.2267C32.4382 16.0808 32.5082 15.9467 32.6249 15.865L34.1824 14.7742C34.8766 14.29 35.3841 14.43 35.6232 14.5525C35.8624 14.6808 36.2707 15.0133 36.2707 15.8592V20.135C36.2707 20.9808 35.8624 21.3192 35.6232 21.4417C35.5124 21.5058 35.3374 21.5642 35.1216 21.5642ZM33.3191 19.54L34.6899 20.4967C34.9524 20.6775 35.1391 20.695 35.2149 20.6542C35.2966 20.6133 35.3841 20.45 35.3841 20.135V15.865C35.3841 15.5442 35.2907 15.3867 35.2149 15.3458C35.1391 15.305 34.9524 15.3225 34.6899 15.5033L33.3191 16.46V19.54Z" fill="white"/>
<path d="M29.7084 17.8542C28.985 17.8542 28.3959 17.265 28.3959 16.5417C28.3959 15.8183 28.985 15.2292 29.7084 15.2292C30.4317 15.2292 31.0209 15.8183 31.0209 16.5417C31.0209 17.265 30.4317 17.8542 29.7084 17.8542ZM29.7084 16.1042C29.4692 16.1042 29.2709 16.3025 29.2709 16.5417C29.2709 16.7808 29.4692 16.9792 29.7084 16.9792C29.9475 16.9792 30.1459 16.7808 30.1459 16.5417C30.1459 16.3025 29.9475 16.1042 29.7084 16.1042Z" fill="white"/>
<path d="M21.2635 32.096C21.5355 32.2133 21.7515 32.392 21.9115 32.632C22.0769 32.8667 22.1595 33.136 22.1595 33.44C22.1595 33.872 22.0075 34.24 21.7035 34.544C21.3995 34.848 21.0315 35 20.5995 35H18.1595V29.4H20.4155C20.8315 29.4 21.1862 29.5493 21.4795 29.848C21.7729 30.1413 21.9195 30.4933 21.9195 30.904C21.9195 31.4267 21.7009 31.824 21.2635 32.096ZM20.4155 29.928H18.7195V31.88H20.4155C20.6769 31.88 20.8982 31.7867 21.0795 31.6C21.2662 31.408 21.3595 31.176 21.3595 30.904C21.3595 30.6373 21.2662 30.408 21.0795 30.216C20.8982 30.024 20.6769 29.928 20.4155 29.928ZM20.5995 34.472C20.8769 34.472 21.1115 34.3733 21.3035 34.176C21.5009 33.9733 21.5995 33.728 21.5995 33.44C21.5995 33.1573 21.5009 32.9147 21.3035 32.712C21.1115 32.5093 20.8769 32.408 20.5995 32.408H18.7195V34.472H20.5995ZM23.1205 29.4H23.6805V35H23.1205V29.4ZM28.9642 34.472H29.5642V36.072H29.0042V35H25.0042V36.072H24.4442V34.472H24.9002C25.2682 34.04 25.4522 33.3733 25.4522 32.472V29.4H28.9642V34.472ZM25.5642 34.472H28.4042V29.928H26.0122V32.488C26.0122 33.3733 25.8629 34.0347 25.5642 34.472ZM31.0477 34.472H33.7677V35H30.4877V29.4H33.7277V29.928H31.0477V31.912H33.5277V32.44H31.0477V34.472ZM39.3228 34.256C38.7628 34.816 38.0774 35.096 37.2668 35.096C36.4561 35.096 35.7708 34.816 35.2108 34.256C34.6508 33.6907 34.3708 33.0053 34.3708 32.2C34.3708 31.3947 34.6508 30.712 35.2108 30.152C35.7708 29.5867 36.4561 29.304 37.2668 29.304C38.0774 29.304 38.7628 29.5867 39.3228 30.152C39.8828 30.712 40.1628 31.3947 40.1628 32.2C40.1628 33.0053 39.8828 33.6907 39.3228 34.256ZM35.6028 33.872C36.0508 34.3253 36.6054 34.552 37.2668 34.552C37.9281 34.552 38.4828 34.3253 38.9308 33.872C39.3788 33.4133 39.6028 32.856 39.6028 32.2C39.6028 31.544 39.3788 30.9893 38.9308 30.536C38.4828 30.0773 37.9281 29.848 37.2668 29.848C36.6054 29.848 36.0508 30.0773 35.6028 30.536C35.1548 30.9893 34.9308 31.544 34.9308 32.2C34.9308 32.856 35.1548 33.4133 35.6028 33.872ZM21.272 42.256C20.712 42.816 20.0267 43.096 19.216 43.096C18.4053 43.096 17.72 42.816 17.16 42.256C16.6 41.6907 16.32 41.0053 16.32 40.2C16.32 39.3947 16.6 38.712 17.16 38.152C17.72 37.5867 18.4053 37.304 19.216 37.304C20.0267 37.304 20.712 37.5867 21.272 38.152C21.832 38.712 22.112 39.3947 22.112 40.2C22.112 41.0053 21.832 41.6907 21.272 42.256ZM17.552 41.872C18 42.3253 18.5547 42.552 19.216 42.552C19.8773 42.552 20.432 42.3253 20.88 41.872C21.328 41.4133 21.552 40.856 21.552 40.2C21.552 39.544 21.328 38.9893 20.88 38.536C20.432 38.0773 19.8773 37.848 19.216 37.848C18.5547 37.848 18 38.0773 17.552 38.536C17.104 38.9893 16.88 39.544 16.88 40.2C16.88 40.856 17.104 41.4133 17.552 41.872ZM26.1897 37.4V37.928H23.6297V43H23.0697V37.4H26.1897ZM26.0731 43V42.504C26.4625 42.5573 26.7531 42.4373 26.9451 42.144C27.1425 41.8453 27.2411 41.3013 27.2411 40.512V37.4H30.8731V43H30.3131V37.928H27.8011V40.528C27.8011 41.0347 27.7611 41.4587 27.6811 41.8C27.6011 42.1413 27.4811 42.4027 27.3211 42.584C27.1665 42.76 26.9878 42.88 26.7851 42.944C26.5878 43.0027 26.3505 43.0213 26.0731 43ZM35.8356 37.4V43H35.2756V40.76H33.9316L32.3956 43H31.7556L33.3156 40.736C32.9156 40.6667 32.5823 40.4773 32.3156 40.168C32.049 39.8533 31.9156 39.4907 31.9156 39.08C31.9156 38.616 32.0783 38.2213 32.4036 37.896C32.7343 37.5653 33.1316 37.4 33.5956 37.4H35.8356ZM33.5956 40.232H35.2756V37.928H33.5956C33.2863 37.928 33.0223 38.04 32.8036 38.264C32.585 38.488 32.4756 38.76 32.4756 39.08C32.4756 39.3947 32.585 39.6667 32.8036 39.896C33.0223 40.12 33.2863 40.232 33.5956 40.232ZM41.1166 42.472H41.7166V44.072H41.1566V43H37.1566V44.072H36.5966V42.472H37.0526C37.4206 42.04 37.6046 41.3733 37.6046 40.472V37.4H41.1166V42.472ZM37.7166 42.472H40.5566V37.928H38.1646V40.488C38.1646 41.3733 38.0152 42.0347 37.7166 42.472Z" fill="#FBFAF9"/>
</svg>
